<svg width="164" height="58" viewBox="0 0 164 58" fill="none" xmlns="http://www.w3.org/2000/svg">
<rect width="164" height="58" rx="7" fill="#151C2A"/>
<path d="M59.516 22.108C58.564 22.108 57.84 21.856 57.344 21.352C56.856 20.848 56.568 20.192 56.48 19.384H57.488C57.56 19.968 57.744 20.428 58.04 20.764C58.344 21.1 58.836 21.268 59.516 21.268C60.156 21.268 60.644 21.112 60.98 20.8C61.316 20.48 61.484 20.04 61.484 19.48C61.484 18.952 61.328 18.572 61.016 18.34C60.712 18.1 60.192 17.98 59.456 17.98H58.364V17.188H59.456C60.56 17.188 61.112 16.664 61.112 15.616C61.112 14.64 60.58 14.152 59.516 14.152C58.988 14.152 58.584 14.272 58.304 14.512C58.032 14.744 57.844 15.132 57.74 15.676H56.804C56.988 14.1 57.916 13.312 59.588 13.312C60.348 13.312 60.96 13.524 61.424 13.948C61.896 14.364 62.132 14.92 62.132 15.616C62.132 16.064 62.008 16.464 61.76 16.816C61.52 17.16 61.172 17.4 60.716 17.536C61.308 17.624 61.756 17.836 62.06 18.172C62.364 18.508 62.516 18.944 62.516 19.48C62.516 20.24 62.236 20.868 61.676 21.364C61.124 21.86 60.404 22.108 59.516 22.108ZM65.7887 22.108C65.1727 22.108 64.6687 21.956 64.2767 21.652C63.8927 21.34 63.7007 20.876 63.7007 20.26C63.7007 19.916 63.7847 19.616 63.9527 19.36C64.1287 19.096 64.3687 18.892 64.6727 18.748C64.9767 18.596 65.3087 18.488 65.6687 18.424C66.0287 18.352 66.4207 18.316 66.8447 18.316H67.7447V17.86C67.7447 17.356 67.6407 16.996 67.4327 16.78C67.2247 16.556 66.8807 16.444 66.4007 16.444C65.5367 16.444 65.0567 16.82 64.9607 17.572H63.9647C64.0287 16.9 64.2887 16.408 64.7447 16.096C65.2087 15.776 65.7767 15.616 66.4487 15.616C67.9767 15.616 68.7407 16.364 68.7407 17.86V22H67.7447V21.208C67.2647 21.808 66.6127 22.108 65.7887 22.108ZM65.8847 21.316C66.4287 21.316 66.8727 21.184 67.2167 20.92C67.5687 20.648 67.7447 20.276 67.7447 19.804V19.024H66.8807C65.4247 19.024 64.6967 19.436 64.6967 20.26C64.6967 20.964 65.0927 21.316 65.8847 21.316ZM71.6212 16.564V22H70.6252V15.724H74.6092V16.564H71.6212ZM76.0527 15.724H77.0487V16.78C77.2327 16.46 77.5207 16.188 77.9127 15.964C78.3047 15.732 78.7247 15.616 79.1727 15.616C80.0127 15.616 80.6967 15.9 81.2247 16.468C81.7607 17.036 82.0287 17.804 82.0287 18.772V18.868C82.0287 19.836 81.7647 20.62 81.2367 21.22C80.7167 21.812 80.0287 22.108 79.1727 22.108C78.2127 22.108 77.5047 21.728 77.0487 20.968V24.184H76.0527V15.724ZM79.0767 21.28C79.7007 21.28 80.1767 21.08 80.5047 20.68C80.8327 20.272 80.9967 19.684 80.9967 18.916V18.82C80.9967 18.06 80.8127 17.476 80.4447 17.068C80.0847 16.652 79.6247 16.444 79.0647 16.444C78.4567 16.444 77.9607 16.648 77.5767 17.056C77.2007 17.456 77.0127 18.044 77.0127 18.82V18.916C77.0127 19.692 77.1967 20.28 77.5647 20.68C77.9407 21.08 78.4447 21.28 79.0767 21.28ZM85.2109 21.352L82.7509 15.724H83.8189L85.7389 20.224L87.4789 15.724H88.4989L85.0309 24.184H84.0229L85.2109 21.352ZM93.6653 17.356C93.6653 17.668 93.5733 17.956 93.3893 18.22C93.2133 18.476 92.9613 18.636 92.6333 18.7C93.0413 18.772 93.3653 18.928 93.6053 19.168C93.8453 19.408 93.9653 19.724 93.9653 20.116V20.152C93.9653 20.736 93.7493 21.208 93.3173 21.568C92.8933 21.928 92.3133 22.108 91.5773 22.108C90.8173 22.108 90.2213 21.932 89.7893 21.58C89.3653 21.22 89.1373 20.716 89.1053 20.068H90.0773C90.1253 20.468 90.2613 20.772 90.4853 20.98C90.7173 21.18 91.0813 21.28 91.5773 21.28C92.4733 21.28 92.9213 20.924 92.9213 20.212V20.176C92.9213 19.824 92.8133 19.568 92.5973 19.408C92.3893 19.248 92.0653 19.168 91.6253 19.168H90.6773V18.376H91.4573C91.8733 18.376 92.1693 18.3 92.3453 18.148C92.5293 17.996 92.6213 17.748 92.6213 17.404V17.368C92.6213 16.752 92.2613 16.444 91.5413 16.444C90.8453 16.444 90.4293 16.772 90.2933 17.428H89.3333C89.4053 16.796 89.6453 16.336 90.0533 16.048C90.4693 15.76 90.9853 15.616 91.6013 15.616C92.1933 15.616 92.6853 15.768 93.0773 16.072C93.4693 16.368 93.6653 16.784 93.6653 17.32V17.356ZM95.551 22V15.724H96.547V20.56L99.751 15.724H100.747V22H99.751V17.164L96.547 22H95.551ZM107.045 16.564H105.017V22H104.021V16.564H101.993V15.724H107.045V16.564ZM110.824 22.108C109.928 22.108 109.196 21.816 108.628 21.232C108.068 20.648 107.788 19.88 107.788 18.928V18.832C107.788 17.888 108.06 17.116 108.604 16.516C109.156 15.916 109.864 15.616 110.728 15.616C111.528 15.616 112.196 15.876 112.732 16.396C113.276 16.908 113.548 17.688 113.548 18.736V19.06H108.82C108.868 20.54 109.54 21.28 110.836 21.28C111.82 21.28 112.376 20.916 112.504 20.188H113.5C113.388 20.812 113.096 21.288 112.624 21.616C112.152 21.944 111.552 22.108 110.824 22.108ZM112.528 18.256C112.44 17.048 111.84 16.444 110.728 16.444C110.224 16.444 109.808 16.604 109.48 16.924C109.152 17.244 108.944 17.688 108.856 18.256H112.528ZM118.18 15.724H120.376C121.848 15.724 122.584 16.256 122.584 17.32V17.356C122.584 17.66 122.5 17.94 122.332 18.196C122.164 18.444 121.912 18.612 121.576 18.7C122.448 18.892 122.884 19.364 122.884 20.116V20.152C122.884 20.76 122.684 21.22 122.284 21.532C121.892 21.844 121.344 22 120.64 22H118.18V15.724ZM119.176 16.516V18.376H120.376C120.792 18.376 121.088 18.3 121.264 18.148C121.448 17.996 121.54 17.748 121.54 17.404V17.368C121.54 17.048 121.444 16.828 121.252 16.708C121.068 16.58 120.772 16.516 120.364 16.516H119.176ZM119.176 19.168V21.208H120.544C120.984 21.208 121.308 21.132 121.516 20.98C121.732 20.82 121.84 20.564 121.84 20.212V20.176C121.84 19.824 121.732 19.568 121.516 19.408C121.308 19.248 120.984 19.168 120.544 19.168H119.176ZM60.716 31.13H64.514L68.69 44H65.648L64.766 41.138H60.104L59.222 44H56.486L60.716 31.13ZM60.734 39.068H64.136L62.444 33.506L60.734 39.068ZM70.4436 34.586H73.0536V36.062C73.3296 35.57 73.7316 35.168 74.2596 34.856C74.7996 34.532 75.3996 34.37 76.0596 34.37C77.2476 34.37 78.2196 34.784 78.9756 35.612C79.7676 36.476 80.1636 37.67 80.1636 39.194V39.338C80.1636 40.85 79.7736 42.044 78.9936 42.92C78.2496 43.772 77.2716 44.198 76.0596 44.198C75.3636 44.198 74.7516 44.048 74.2236 43.748C73.6956 43.436 73.3056 43.04 73.0536 42.56V47.204H70.4436V34.586ZM75.2856 42.164C76.0056 42.164 76.5576 41.93 76.9416 41.462C77.3256 40.982 77.5176 40.28 77.5176 39.356V39.212C77.5176 38.276 77.3136 37.568 76.9056 37.088C76.4976 36.608 75.9516 36.368 75.2676 36.368C74.5596 36.368 73.9956 36.614 73.5756 37.106C73.1676 37.586 72.9636 38.288 72.9636 39.212V39.356C72.9636 40.28 73.1676 40.982 73.5756 41.462C73.9836 41.93 74.5536 42.164 75.2856 42.164ZM82.133 34.586H84.743V36.062C85.019 35.57 85.421 35.168 85.949 34.856C86.489 34.532 87.089 34.37 87.749 34.37C88.937 34.37 89.909 34.784 90.665 35.612C91.457 36.476 91.853 37.67 91.853 39.194V39.338C91.853 40.85 91.463 42.044 90.683 42.92C89.939 43.772 88.961 44.198 87.749 44.198C87.053 44.198 86.441 44.048 85.913 43.748C85.385 43.436 84.995 43.04 84.743 42.56V47.204H82.133V34.586ZM86.975 42.164C87.695 42.164 88.247 41.93 88.631 41.462C89.015 40.982 89.207 40.28 89.207 39.356V39.212C89.207 38.276 89.003 37.568 88.595 37.088C88.187 36.608 87.641 36.368 86.957 36.368C86.249 36.368 85.685 36.614 85.265 37.106C84.857 37.586 84.653 38.288 84.653 39.212V39.356C84.653 40.28 84.857 40.982 85.265 41.462C85.673 41.93 86.243 42.164 86.975 42.164ZM102.547 44.198C100.831 44.198 99.5227 43.814 98.6227 43.046C97.7707 42.314 97.3087 41.288 97.2367 39.968H100.027C100.111 40.652 100.309 41.144 100.621 41.444C101.041 41.864 101.683 42.074 102.547 42.074C103.195 42.074 103.711 41.918 104.095 41.606C104.479 41.282 104.671 40.868 104.671 40.364C104.671 39.872 104.503 39.5 104.167 39.248C103.795 39.02 103.153 38.834 102.241 38.69C100.549 38.474 99.3667 38.078 98.6947 37.502C97.9627 36.938 97.5967 36.032 97.5967 34.784C97.5967 33.692 98.0227 32.774 98.8747 32.03C99.7507 31.31 100.885 30.95 102.277 30.95C103.741 30.95 104.881 31.274 105.697 31.922C106.513 32.57 106.981 33.53 107.101 34.802H104.419C104.263 33.662 103.549 33.092 102.277 33.092C101.653 33.092 101.173 33.224 100.837 33.488C100.513 33.752 100.351 34.106 100.351 34.55C100.351 35.042 100.507 35.39 100.819 35.594C101.143 35.846 101.785 36.044 102.745 36.188C104.377 36.392 105.553 36.758 106.273 37.286C107.065 37.886 107.461 38.822 107.461 40.094C107.461 41.282 107.023 42.248 106.147 42.992C105.223 43.796 104.023 44.198 102.547 44.198ZM112.993 44.18C110.965 44.18 109.951 43.19 109.951 41.21V36.44H108.745V34.586H109.951V32.552H112.543V34.586H114.523V36.44H112.543V40.976C112.543 41.72 112.891 42.092 113.587 42.092C113.971 42.092 114.301 42.032 114.577 41.912V43.928C114.097 44.096 113.569 44.18 112.993 44.18ZM120.943 42.218C121.675 42.218 122.239 41.966 122.635 41.462C123.043 40.958 123.247 40.256 123.247 39.356V39.23C123.247 38.33 123.043 37.628 122.635 37.124C122.239 36.608 121.675 36.35 120.943 36.35C120.223 36.35 119.659 36.602 119.251 37.106C118.843 37.598 118.639 38.294 118.639 39.194V39.338C118.639 40.25 118.837 40.958 119.233 41.462C119.629 41.966 120.199 42.218 120.943 42.218ZM120.925 44.198C119.485 44.198 118.309 43.76 117.397 42.884C116.449 42.008 115.975 40.844 115.975 39.392V39.248C115.975 37.796 116.449 36.614 117.397 35.702C118.321 34.814 119.503 34.37 120.943 34.37C122.395 34.37 123.577 34.808 124.489 35.684C125.425 36.596 125.893 37.766 125.893 39.194V39.338C125.893 40.79 125.419 41.972 124.471 42.884C123.559 43.76 122.377 44.198 120.925 44.198ZM127.854 34.586H130.464V36.386C131.064 35.102 132.078 34.454 133.506 34.442V36.872C132.498 36.86 131.736 37.04 131.22 37.412C130.716 37.784 130.464 38.408 130.464 39.284V44H127.854V34.586ZM139.592 44.198C138.128 44.198 136.958 43.772 136.082 42.92C135.146 42.056 134.678 40.886 134.678 39.41V39.266C134.678 37.802 135.146 36.614 136.082 35.702C136.994 34.814 138.14 34.37 139.52 34.37C140.828 34.37 141.896 34.748 142.724 35.504C143.648 36.344 144.11 37.562 144.11 39.158V39.878H137.324C137.36 40.67 137.576 41.282 137.972 41.714C138.38 42.134 138.944 42.344 139.664 42.344C140.792 42.344 141.446 41.906 141.626 41.03H144.092C143.936 42.05 143.468 42.836 142.688 43.388C141.92 43.928 140.888 44.198 139.592 44.198ZM141.572 38.276C141.488 36.872 140.804 36.17 139.52 36.17C138.932 36.17 138.446 36.356 138.062 36.728C137.69 37.088 137.456 37.604 137.36 38.276H141.572Z" fill="#F5F5F7"/>
<path d="M41.7515 30.0098C41.7672 28.784 42.0929 27.5822 42.6983 26.5162C43.3036 25.4502 44.169 24.5548 45.2137 23.9134C44.545 22.9686 43.6675 22.1907 42.6493 21.6403C41.6311 21.0899 40.4997 20.7817 39.343 20.7397C36.8342 20.4888 34.4884 22.2199 33.234 22.2199C31.9796 22.2199 30.0102 20.7648 27.9279 20.815C26.5798 20.857 25.2657 21.2477 24.1137 21.949C22.9617 22.6504 22.0111 23.6383 21.3548 24.8165C18.5073 29.7464 20.6272 36.9718 23.3493 40.9483C24.7166 42.8926 26.3097 45.0753 28.3669 45C30.4242 44.9247 31.1643 43.7456 33.6229 43.7456C36.0815 43.7456 36.7715 45 38.904 45C41.0365 45 42.4665 43.0431 43.7836 41.0737C44.7597 39.6854 45.513 38.1533 46.0165 36.5327C44.742 35.9866 43.6573 35.0761 42.8986 33.9156C42.1398 32.7551 41.7407 31.3963 41.7515 30.0098Z" fill="#F5F5F7"/>
<path d="M37.7374 18.1305C38.9274 16.6975 39.5123 14.8572 39.3681 13C37.549 13.1878 35.8683 14.0572 34.6641 15.4336C34.0709 16.1052 33.6169 16.8879 33.3284 17.7363C33.0398 18.5847 32.9225 19.4819 32.9832 20.3759C33.8934 20.3828 34.7935 20.1845 35.6165 19.7958C36.4396 19.4071 37.1645 18.8379 37.7374 18.1305Z" fill="#F5F5F7"/>
</svg>
