<svg width="156" height="58" viewBox="0 0 156 58" fill="none" xmlns="http://www.w3.org/2000/svg">
<rect width="156" height="58" rx="7" fill="#151C2A"/>
<path d="M61.74 22.108C60.5 22.108 59.52 21.716 58.8 20.932C58.088 20.148 57.732 19.092 57.732 17.764V17.668C57.732 16.396 58.112 15.348 58.872 14.524C59.632 13.7 60.596 13.288 61.764 13.288C62.7 13.288 63.488 13.532 64.128 14.02C64.776 14.508 65.148 15.2 65.244 16.096H64.212C64.092 15.432 63.836 14.936 63.444 14.608C63.06 14.28 62.504 14.116 61.776 14.116C60.888 14.116 60.172 14.44 59.628 15.088C59.084 15.728 58.812 16.584 58.812 17.656V17.752C58.812 18.848 59.072 19.708 59.592 20.332C60.12 20.948 60.844 21.256 61.764 21.256C62.476 21.256 63.056 21.08 63.504 20.728C63.96 20.368 64.244 19.844 64.356 19.156H65.328C65.184 20.124 64.796 20.86 64.164 21.364C63.532 21.86 62.724 22.108 61.74 22.108ZM67.7696 18.796V22H66.7736V15.724H67.7696V18.652L70.3736 15.724H71.5376L68.8496 18.676L71.7656 22H70.5536L67.7696 18.796ZM74.5465 22.108C73.9305 22.108 73.4265 21.956 73.0345 21.652C72.6505 21.34 72.4585 20.876 72.4585 20.26C72.4585 19.916 72.5425 19.616 72.7105 19.36C72.8865 19.096 73.1265 18.892 73.4305 18.748C73.7345 18.596 74.0665 18.488 74.4265 18.424C74.7865 18.352 75.1785 18.316 75.6025 18.316H76.5025V17.86C76.5025 17.356 76.3985 16.996 76.1905 16.78C75.9825 16.556 75.6385 16.444 75.1585 16.444C74.2945 16.444 73.8145 16.82 73.7185 17.572H72.7225C72.7865 16.9 73.0465 16.408 73.5025 16.096C73.9665 15.776 74.5345 15.616 75.2065 15.616C76.7345 15.616 77.4985 16.364 77.4985 17.86V22H76.5025V21.208C76.0225 21.808 75.3705 22.108 74.5465 22.108ZM74.6425 21.316C75.1865 21.316 75.6305 21.184 75.9745 20.92C76.3265 20.648 76.5025 20.276 76.5025 19.804V19.024H75.6385C74.1825 19.024 73.4545 19.436 73.4545 20.26C73.4545 20.964 73.8505 21.316 74.6425 21.316ZM82.8086 22V19.072C82.3766 19.536 81.7766 19.768 81.0086 19.768C80.3926 19.768 79.8886 19.572 79.4966 19.18C79.1046 18.78 78.9086 18.172 78.9086 17.356V15.724H79.9046V17.308C79.9046 18.372 80.3606 18.904 81.2726 18.904C81.9526 18.904 82.4646 18.672 82.8086 18.208V15.724H83.8046V22H82.8086ZM87.4606 22.108C86.8446 22.108 86.3406 21.956 85.9486 21.652C85.5646 21.34 85.3726 20.876 85.3726 20.26C85.3726 19.916 85.4566 19.616 85.6246 19.36C85.8006 19.096 86.0406 18.892 86.3446 18.748C86.6486 18.596 86.9806 18.488 87.3406 18.424C87.7006 18.352 88.0926 18.316 88.5166 18.316H89.4166V17.86C89.4166 17.356 89.3126 16.996 89.1046 16.78C88.8966 16.556 88.5526 16.444 88.0726 16.444C87.2086 16.444 86.7286 16.82 86.6326 17.572H85.6366C85.7006 16.9 85.9606 16.408 86.4166 16.096C86.8806 15.776 87.4486 15.616 88.1206 15.616C89.6486 15.616 90.4126 16.364 90.4126 17.86V22H89.4166V21.208C88.9366 21.808 88.2846 22.108 87.4606 22.108ZM87.5566 21.316C88.1006 21.316 88.5446 21.184 88.8886 20.92C89.2406 20.648 89.4166 20.276 89.4166 19.804V19.024H88.5526C87.0966 19.024 86.3686 19.436 86.3686 20.26C86.3686 20.964 86.7646 21.316 87.5566 21.316ZM96.5253 16.564H94.4973V22H93.5013V16.564H91.4733V15.724H96.5253V16.564ZM97.8986 15.724H98.8946V17.92H100.011C100.715 17.92 101.291 18.092 101.739 18.436C102.187 18.78 102.411 19.292 102.411 19.972V20.008C102.411 20.696 102.187 21.2 101.739 21.52C101.299 21.84 100.723 22 100.011 22H97.8986V15.724ZM100.071 21.22C100.551 21.22 100.895 21.12 101.103 20.92C101.311 20.712 101.415 20.408 101.415 20.008V19.972C101.415 19.54 101.307 19.224 101.091 19.024C100.883 18.816 100.543 18.712 100.071 18.712H98.8946V21.22H100.071ZM108.228 19.576C108.14 20.312 108.004 20.84 107.82 21.16H110.76V16.54H108.456C108.416 17.516 108.34 18.528 108.228 19.576ZM106.98 23.524H106.176V21.16H106.62C106.844 21.104 107 20.944 107.088 20.68C107.176 20.408 107.252 20.02 107.316 19.516C107.388 18.868 107.456 18.052 107.52 17.068C107.552 16.628 107.576 16.18 107.592 15.724H111.732V21.16H112.692V23.524H111.888L111.816 22H107.052L106.98 23.524ZM115.317 19.576C115.245 20.44 115.093 21.072 114.861 21.472C114.629 21.864 114.265 22.06 113.769 22.06C113.665 22.06 113.557 22.052 113.445 22.036L113.349 22V21.052L113.433 21.076C113.513 21.092 113.597 21.1 113.685 21.1C113.813 21.1 113.917 21.064 113.997 20.992C114.085 20.912 114.153 20.788 114.201 20.62C114.257 20.452 114.297 20.296 114.321 20.152C114.345 20 114.373 19.788 114.405 19.516C114.437 19.228 114.485 18.412 114.549 17.068L114.585 15.724H118.725V22H117.729V16.564H115.473C115.401 18.292 115.349 19.296 115.317 19.576ZM122.826 16.516C121.93 16.516 121.482 16.896 121.482 17.656V17.692C121.482 18.052 121.586 18.324 121.794 18.508C122.002 18.692 122.346 18.784 122.826 18.784H124.002V16.516H122.826ZM121.17 22H120.03L121.938 19.372C120.97 19.172 120.486 18.612 120.486 17.692V17.656C120.486 17 120.71 16.516 121.158 16.204C121.606 15.884 122.182 15.724 122.886 15.724H124.998V22H124.002V19.54H122.922L121.17 22ZM58.494 31.13H61.41V41.714H66.648V44H58.494V31.13ZM70.9728 32.912C70.6848 33.176 70.3308 33.308 69.9108 33.308C69.4908 33.308 69.1368 33.176 68.8488 32.912C68.5728 32.636 68.4348 32.294 68.4348 31.886C68.4348 31.478 68.5728 31.142 68.8488 30.878C69.1368 30.602 69.4908 30.464 69.9108 30.464C70.3308 30.464 70.6848 30.602 70.9728 30.878C71.2608 31.142 71.4048 31.478 71.4048 31.886C71.4048 32.294 71.2608 32.636 70.9728 32.912ZM68.6328 34.586H71.2248V44H68.6328V34.586ZM73.8342 34.586H76.4442V36.08C77.0322 34.94 78.0522 34.37 79.5042 34.37C80.4522 34.37 81.2142 34.658 81.7902 35.234C82.3782 35.858 82.6722 36.782 82.6722 38.006V44H80.0622V38.384C80.0622 37.736 79.9302 37.262 79.6662 36.962C79.4022 36.65 78.9822 36.494 78.4062 36.494C77.8182 36.494 77.3442 36.674 76.9842 37.034C76.6242 37.382 76.4442 37.892 76.4442 38.564V44H73.8342V34.586ZM88.2514 44.198C87.2914 44.198 86.5294 43.916 85.9654 43.352C85.3534 42.74 85.0474 41.84 85.0474 40.652V34.586H87.6394V40.292C87.6394 41.552 88.1854 42.182 89.2774 42.182C89.8534 42.182 90.3214 42.008 90.6814 41.66C91.0534 41.3 91.2394 40.784 91.2394 40.112V34.586H93.8314V44H91.2394V42.524C90.6754 43.64 89.6794 44.198 88.2514 44.198ZM98.7278 39.194L95.7218 34.586H98.7098L100.474 37.412L102.202 34.586H104.902L101.896 38.996L105.208 44H102.202L100.222 40.832L98.1878 44H95.5058L98.7278 39.194ZM114.525 40.724C115.185 41.492 116.049 41.876 117.117 41.876C118.185 41.876 119.049 41.486 119.709 40.706C120.345 39.938 120.663 38.906 120.663 37.61V37.466C120.663 36.218 120.351 35.204 119.727 34.424C119.067 33.644 118.185 33.254 117.081 33.254C115.989 33.254 115.113 33.632 114.453 34.388C113.817 35.132 113.499 36.164 113.499 37.484V37.628C113.499 38.936 113.841 39.968 114.525 40.724ZM121.887 42.326C120.663 43.574 119.055 44.198 117.063 44.198C115.071 44.198 113.469 43.574 112.257 42.326C111.057 41.126 110.457 39.566 110.457 37.646V37.502C110.457 35.558 111.087 33.986 112.347 32.786C113.595 31.562 115.173 30.95 117.081 30.95C119.037 30.95 120.627 31.544 121.851 32.732C123.087 33.968 123.705 35.534 123.705 37.43V37.574C123.705 39.506 123.099 41.09 121.887 42.326ZM130.353 44.198C128.637 44.198 127.329 43.814 126.429 43.046C125.577 42.314 125.115 41.288 125.043 39.968H127.833C127.917 40.652 128.115 41.144 128.427 41.444C128.847 41.864 129.489 42.074 130.353 42.074C131.001 42.074 131.517 41.918 131.901 41.606C132.285 41.282 132.477 40.868 132.477 40.364C132.477 39.872 132.309 39.5 131.973 39.248C131.601 39.02 130.959 38.834 130.047 38.69C128.355 38.474 127.173 38.078 126.501 37.502C125.769 36.938 125.403 36.032 125.403 34.784C125.403 33.692 125.829 32.774 126.681 32.03C127.557 31.31 128.691 30.95 130.083 30.95C131.547 30.95 132.687 31.274 133.503 31.922C134.319 32.57 134.787 33.53 134.907 34.802H132.225C132.069 33.662 131.355 33.092 130.083 33.092C129.459 33.092 128.979 33.224 128.643 33.488C128.319 33.752 128.157 34.106 128.157 34.55C128.157 35.042 128.313 35.39 128.625 35.594C128.949 35.846 129.591 36.044 130.551 36.188C132.183 36.392 133.359 36.758 134.079 37.286C134.871 37.886 135.267 38.822 135.267 40.094C135.267 41.282 134.829 42.248 133.953 42.992C133.029 43.796 131.829 44.198 130.353 44.198Z" fill="#F5F5F7"/>
<path d="M46.4808 38.6932C45.544 38.3092 45.1412 37.8 45.18 37.04C45.22 36.1516 44.716 35.5012 44.4768 35.244C44.6212 34.692 45.0436 32.7812 44.4768 31.1216C43.8676 29.3456 42.0084 26.6328 40.09 23.966C39.304 22.8688 39.268 21.68 39.224 20.3C39.184 18.9852 39.1364 17.4948 38.4032 15.8384C37.6072 14.0344 36.0076 13 34.0156 13C32.8308 13 31.6156 13.3704 30.678 14.016C28.7612 15.3388 29.0148 18.2232 29.184 20.132C29.2068 20.3932 29.2284 20.64 29.2412 20.852C29.3528 22.7212 29.2512 23.7064 29.1184 24.006C29.0324 24.2016 28.6092 24.7584 28.1616 25.348C27.6972 25.9568 27.172 26.648 26.744 27.292C26.2304 28.0672 25.816 29.252 25.4152 30.3972C25.122 31.2372 24.8452 32.0276 24.5752 32.5008C24.2034 33.1534 24.1029 33.926 24.2952 34.652C24.102 34.7864 23.8224 35.052 23.5864 35.5496C23.3012 36.1584 22.7224 36.4852 21.5192 36.7168C20.9664 36.8296 20.5852 37.0624 20.386 37.4076C20.0956 37.9104 20.2536 38.542 20.398 38.9736C20.6108 39.608 20.478 40.0096 20.238 40.7388C20.1824 40.9072 20.118 41.0988 20.0556 41.308C19.9548 41.6396 19.9912 41.9412 20.1632 42.204C20.6176 42.8988 21.9436 43.1436 23.3084 43.3048C24.1236 43.4016 25.0156 43.7276 25.8784 44.0432C26.7236 44.352 27.5984 44.6712 28.3924 44.7684C28.5104 44.7834 28.6291 44.791 28.748 44.7912C29.948 44.7912 30.4896 43.9952 30.6612 43.668C31.0924 43.5804 32.5784 43.2988 34.11 43.2608C35.6416 43.2228 37.1192 43.5192 37.5384 43.6132C37.67 43.8652 38.0184 44.4416 38.5712 44.7384C38.8756 44.9048 39.2992 45 39.7312 45C40.1944 45 41.076 44.8904 41.7736 44.1564C42.4712 43.4224 44.2076 42.4764 45.4772 41.7904C45.7604 41.6372 46.0256 41.4936 46.258 41.364C46.9712 40.9688 47.3604 40.404 47.3256 39.8144C47.2976 39.3248 46.9736 38.8952 46.4808 38.6932ZM30.6936 38.5512C30.6048 37.926 29.8004 37.306 28.8692 36.588C28.1072 36.0004 27.244 35.3352 27.006 34.7716C26.5144 33.6088 26.902 31.5644 27.5776 30.5116C27.9116 29.9844 28.184 29.1852 28.448 28.412C28.7328 27.5772 29.0272 26.7144 29.3564 26.3364C29.8764 25.7464 30.36 24.5988 30.4456 23.6944C30.934 24.1608 31.6916 24.7524 32.3912 24.7524C32.4968 24.7528 32.602 24.7385 32.7036 24.71C33.1836 24.5716 33.8868 24.1648 34.568 23.7712C35.1552 23.432 35.8792 23.0136 36.152 22.9756C36.6192 23.6464 39.334 29.6556 39.6112 31.5836C39.7672 32.6766 39.7236 33.7889 39.4824 34.8664C39.3753 34.8514 39.2674 34.8437 39.1592 34.8432C38.4028 34.8432 38.2028 35.2556 38.1508 35.5024C38.0164 36.1424 38.0024 38.19 38.0008 38.65C37.7276 38.9976 36.3448 40.6332 34.3608 40.9276C33.6178 41.0398 32.8678 41.0989 32.1164 41.1044C31.7463 41.1086 31.3764 41.0859 31.0096 41.0364L30.012 39.8948C30.404 39.7008 30.7976 39.2908 30.6936 38.5512ZM31.9596 19.7304C31.9284 19.744 31.8976 19.7584 31.8676 19.7736C31.8646 19.705 31.8576 19.6366 31.8468 19.5688C31.738 18.942 31.3224 18.4868 30.8584 18.4868C30.8228 18.487 30.7872 18.4898 30.752 18.4952C30.476 18.5412 30.2596 18.7484 30.1412 19.042C30.2452 18.3976 30.6104 17.922 31.0436 17.922C31.5524 17.922 31.9824 18.6076 31.9824 19.4192C31.9821 19.5233 31.9745 19.6273 31.9596 19.7304ZM35.9136 20.2136C35.961 20.0597 35.9847 19.8994 35.984 19.7384C35.984 19.0024 35.5172 18.426 34.9212 18.426C34.3388 18.426 33.8648 19.0144 33.8648 19.7384C33.8648 19.7876 33.8672 19.8372 33.872 19.8864L33.784 19.852C33.7167 19.6484 33.6826 19.4353 33.6828 19.2208C33.6828 18.3408 34.2452 17.6248 34.9368 17.6248C35.6284 17.6248 36.1904 18.3408 36.1904 19.2208C36.1926 19.5711 36.0967 19.915 35.9136 20.2136ZM35.4036 21.9264C35.3936 21.9708 35.3728 21.9908 35.1384 22.1128C35.0184 22.174 34.8724 22.2508 34.6884 22.3632L34.5652 22.4376C34.07 22.738 32.9108 23.4408 32.5964 23.482C32.3828 23.5108 32.2504 23.4276 31.9532 23.2256C31.886 23.18 31.8148 23.1316 31.7388 23.0828C31.2028 22.7312 30.8588 22.344 30.8188 22.1928C30.9936 22.0576 31.4268 21.7196 31.6484 21.5196C32.0984 21.1012 32.5512 20.82 32.7752 20.82C32.7865 20.8199 32.7977 20.8208 32.8088 20.8228C33.0724 20.8696 33.722 21.1288 34.1964 21.318C34.4156 21.4056 34.6048 21.4812 34.738 21.5288C35.1584 21.6732 35.3772 21.8576 35.4036 21.9264ZM39.1752 41.48C39.412 40.412 39.6848 38.96 39.6408 38.1024C39.6304 37.9076 39.6132 37.6956 39.5968 37.4908C39.5656 37.108 39.5192 36.5388 39.5668 36.3708C39.5771 36.3663 39.5877 36.3624 39.5984 36.3592C39.5984 36.8492 39.7068 37.826 40.488 38.1668C40.7382 38.2718 41.0075 38.324 41.2788 38.32C42.0616 38.32 42.9296 37.936 43.2856 37.5804C43.4804 37.3779 43.6511 37.1537 43.7944 36.912C43.8267 37.0137 43.8386 37.1209 43.8292 37.2272C43.7828 37.9496 44.134 38.9072 44.802 39.2612L44.8992 39.312C45.1392 39.4372 45.7692 39.7688 45.7792 39.9264C45.7701 39.9464 45.7564 39.9639 45.7392 39.9776C45.5792 40.1224 45.0236 40.4068 44.4848 40.682C43.5288 41.17 42.4448 41.722 41.9588 42.2352C41.2736 42.9552 40.4988 43.4404 40.0308 43.4404C39.979 43.4411 39.9273 43.4338 39.8776 43.4188C39.3688 43.2592 38.9504 42.526 39.1752 41.48ZM21.852 38.7552C21.8004 38.5124 21.7592 38.3212 21.8032 38.1356C21.8352 37.998 22.5136 37.8508 22.8032 37.788C23.2104 37.6996 23.6316 37.608 23.9072 37.4408C24.28 37.2152 24.4816 36.8008 24.6596 36.432C24.7884 36.1664 24.9216 35.8916 25.0796 35.8016C25.0945 35.7934 25.1114 35.7895 25.1284 35.7904C25.4248 35.7904 26.0484 36.4136 26.406 36.972C26.4968 37.1124 26.6656 37.3944 26.8604 37.7208C27.4432 38.6964 28.2416 40.0324 28.6604 40.4808C29.036 40.8832 29.644 41.6572 29.4944 42.3208C29.384 42.8356 28.8008 43.2544 28.664 43.3472C28.6034 43.3596 28.5415 43.3653 28.4796 43.3644C27.6796 43.3644 26.102 42.7004 25.2532 42.3436L25.1276 42.2908C24.6536 42.0908 23.88 41.9672 23.1316 41.846C22.5364 41.7496 21.7212 41.6176 21.586 41.4984C21.4768 41.3756 21.6036 40.976 21.7156 40.6236C21.8044 40.3659 21.8745 40.1022 21.9252 39.8344C21.9892 39.3972 21.9132 39.04 21.852 38.7552Z" fill="#F5F5F7"/>
</svg>
