<svg width="163" height="58" viewBox="0 0 163 58" fill="none" xmlns="http://www.w3.org/2000/svg">
<rect width="163" height="58" rx="7" fill="#151C2A"/>
<path d="M66.74 22.108C65.5 22.108 64.52 21.716 63.8 20.932C63.088 20.148 62.732 19.092 62.732 17.764V17.668C62.732 16.396 63.112 15.348 63.872 14.524C64.632 13.7 65.596 13.288 66.764 13.288C67.7 13.288 68.488 13.532 69.128 14.02C69.776 14.508 70.148 15.2 70.244 16.096H69.212C69.092 15.432 68.836 14.936 68.444 14.608C68.06 14.28 67.504 14.116 66.776 14.116C65.888 14.116 65.172 14.44 64.628 15.088C64.084 15.728 63.812 16.584 63.812 17.656V17.752C63.812 18.848 64.072 19.708 64.592 20.332C65.12 20.948 65.844 21.256 66.764 21.256C67.476 21.256 68.056 21.08 68.504 20.728C68.96 20.368 69.244 19.844 69.356 19.156H70.328C70.184 20.124 69.796 20.86 69.164 21.364C68.532 21.86 67.724 22.108 66.74 22.108ZM72.7696 18.796V22H71.7736V15.724H72.7696V18.652L75.3736 15.724H76.5376L73.8496 18.676L76.7656 22H75.5536L72.7696 18.796ZM79.5465 22.108C78.9305 22.108 78.4265 21.956 78.0345 21.652C77.6505 21.34 77.4585 20.876 77.4585 20.26C77.4585 19.916 77.5425 19.616 77.7105 19.36C77.8865 19.096 78.1265 18.892 78.4305 18.748C78.7345 18.596 79.0665 18.488 79.4265 18.424C79.7865 18.352 80.1785 18.316 80.6025 18.316H81.5025V17.86C81.5025 17.356 81.3985 16.996 81.1905 16.78C80.9825 16.556 80.6385 16.444 80.1585 16.444C79.2945 16.444 78.8145 16.82 78.7185 17.572H77.7225C77.7865 16.9 78.0465 16.408 78.5025 16.096C78.9665 15.776 79.5345 15.616 80.2065 15.616C81.7345 15.616 82.4985 16.364 82.4985 17.86V22H81.5025V21.208C81.0225 21.808 80.3705 22.108 79.5465 22.108ZM79.6425 21.316C80.1865 21.316 80.6305 21.184 80.9745 20.92C81.3265 20.648 81.5025 20.276 81.5025 19.804V19.024H80.6385C79.1825 19.024 78.4545 19.436 78.4545 20.26C78.4545 20.964 78.8505 21.316 79.6425 21.316ZM87.8086 22V19.072C87.3766 19.536 86.7766 19.768 86.0086 19.768C85.3926 19.768 84.8886 19.572 84.4966 19.18C84.1046 18.78 83.9086 18.172 83.9086 17.356V15.724H84.9046V17.308C84.9046 18.372 85.3606 18.904 86.2726 18.904C86.9526 18.904 87.4646 18.672 87.8086 18.208V15.724H88.8046V22H87.8086ZM92.4606 22.108C91.8446 22.108 91.3406 21.956 90.9486 21.652C90.5646 21.34 90.3726 20.876 90.3726 20.26C90.3726 19.916 90.4566 19.616 90.6246 19.36C90.8006 19.096 91.0406 18.892 91.3446 18.748C91.6486 18.596 91.9806 18.488 92.3406 18.424C92.7006 18.352 93.0926 18.316 93.5166 18.316H94.4166V17.86C94.4166 17.356 94.3126 16.996 94.1046 16.78C93.8966 16.556 93.5526 16.444 93.0726 16.444C92.2086 16.444 91.7286 16.82 91.6326 17.572H90.6366C90.7006 16.9 90.9606 16.408 91.4166 16.096C91.8806 15.776 92.4486 15.616 93.1206 15.616C94.6486 15.616 95.4126 16.364 95.4126 17.86V22H94.4166V21.208C93.9366 21.808 93.2846 22.108 92.4606 22.108ZM92.5566 21.316C93.1006 21.316 93.5446 21.184 93.8886 20.92C94.2406 20.648 94.4166 20.276 94.4166 19.804V19.024H93.5526C92.0966 19.024 91.3686 19.436 91.3686 20.26C91.3686 20.964 91.7646 21.316 92.5566 21.316ZM101.525 16.564H99.4973V22H98.5013V16.564H96.4733V15.724H101.525V16.564ZM102.899 15.724H103.895V17.92H105.011C105.715 17.92 106.291 18.092 106.739 18.436C107.187 18.78 107.411 19.292 107.411 19.972V20.008C107.411 20.696 107.187 21.2 106.739 21.52C106.299 21.84 105.723 22 105.011 22H102.899V15.724ZM105.071 21.22C105.551 21.22 105.895 21.12 106.103 20.92C106.311 20.712 106.415 20.408 106.415 20.008V19.972C106.415 19.54 106.307 19.224 106.091 19.024C105.883 18.816 105.543 18.712 105.071 18.712H103.895V21.22H105.071ZM113.228 19.576C113.14 20.312 113.004 20.84 112.82 21.16H115.76V16.54H113.456C113.416 17.516 113.34 18.528 113.228 19.576ZM111.98 23.524H111.176V21.16H111.62C111.844 21.104 112 20.944 112.088 20.68C112.176 20.408 112.252 20.02 112.316 19.516C112.388 18.868 112.456 18.052 112.52 17.068C112.552 16.628 112.576 16.18 112.592 15.724H116.732V21.16H117.692V23.524H116.888L116.816 22H112.052L111.98 23.524ZM120.317 19.576C120.245 20.44 120.093 21.072 119.861 21.472C119.629 21.864 119.265 22.06 118.769 22.06C118.665 22.06 118.557 22.052 118.445 22.036L118.349 22V21.052L118.433 21.076C118.513 21.092 118.597 21.1 118.685 21.1C118.813 21.1 118.917 21.064 118.997 20.992C119.085 20.912 119.153 20.788 119.201 20.62C119.257 20.452 119.297 20.296 119.321 20.152C119.345 20 119.373 19.788 119.405 19.516C119.437 19.228 119.485 18.412 119.549 17.068L119.585 15.724H123.725V22H122.729V16.564H120.473C120.401 18.292 120.349 19.296 120.317 19.576ZM127.826 16.516C126.93 16.516 126.482 16.896 126.482 17.656V17.692C126.482 18.052 126.586 18.324 126.794 18.508C127.002 18.692 127.346 18.784 127.826 18.784H129.002V16.516H127.826ZM126.17 22H125.03L126.938 19.372C125.97 19.172 125.486 18.612 125.486 17.692V17.656C125.486 17 125.71 16.516 126.158 16.204C126.606 15.884 127.182 15.724 127.886 15.724H129.998V22H129.002V19.54H127.922L126.17 22ZM62.486 31.13H65.438L67.454 40.022L69.65 31.13H72.134L74.42 40.076L76.508 31.13H79.208L76.076 44H73.106L70.784 35.108L68.426 44H65.618L62.486 31.13ZM83.1974 32.912C82.9094 33.176 82.5554 33.308 82.1354 33.308C81.7154 33.308 81.3614 33.176 81.0734 32.912C80.7974 32.636 80.6594 32.294 80.6594 31.886C80.6594 31.478 80.7974 31.142 81.0734 30.878C81.3614 30.602 81.7154 30.464 82.1354 30.464C82.5554 30.464 82.9094 30.602 83.1974 30.878C83.4854 31.142 83.6294 31.478 83.6294 31.886C83.6294 32.294 83.4854 32.636 83.1974 32.912ZM80.8574 34.586H83.4494V44H80.8574V34.586ZM86.0588 34.586H88.6688V36.08C89.2568 34.94 90.2768 34.37 91.7288 34.37C92.6768 34.37 93.4388 34.658 94.0148 35.234C94.6028 35.858 94.8968 36.782 94.8968 38.006V44H92.2868V38.384C92.2868 37.736 92.1548 37.262 91.8908 36.962C91.6268 36.65 91.2068 36.494 90.6308 36.494C90.0428 36.494 89.5688 36.674 89.2088 37.034C88.8488 37.382 88.6688 37.892 88.6688 38.564V44H86.0588V34.586ZM100.872 44.198C99.684 44.198 98.718 43.79 97.974 42.974C97.182 42.122 96.786 40.94 96.786 39.428V39.284C96.786 37.784 97.182 36.578 97.974 35.666C98.73 34.802 99.714 34.37 100.926 34.37C102.318 34.37 103.308 34.91 103.896 35.99V30.32H106.488V44H103.896V42.434C103.644 42.938 103.242 43.358 102.69 43.694C102.138 44.03 101.532 44.198 100.872 44.198ZM101.646 42.164C102.354 42.164 102.918 41.93 103.338 41.462C103.758 40.982 103.968 40.274 103.968 39.338V39.194C103.968 38.27 103.776 37.568 103.392 37.088C103.008 36.608 102.45 36.368 101.718 36.368C100.986 36.368 100.422 36.614 100.026 37.106C99.642 37.586 99.45 38.294 99.45 39.23V39.374C99.45 40.286 99.648 40.982 100.044 41.462C100.44 41.93 100.974 42.164 101.646 42.164ZM113.425 42.218C114.157 42.218 114.721 41.966 115.117 41.462C115.525 40.958 115.729 40.256 115.729 39.356V39.23C115.729 38.33 115.525 37.628 115.117 37.124C114.721 36.608 114.157 36.35 113.425 36.35C112.705 36.35 112.141 36.602 111.733 37.106C111.325 37.598 111.121 38.294 111.121 39.194V39.338C111.121 40.25 111.319 40.958 111.715 41.462C112.111 41.966 112.681 42.218 113.425 42.218ZM113.407 44.198C111.967 44.198 110.791 43.76 109.879 42.884C108.931 42.008 108.457 40.844 108.457 39.392V39.248C108.457 37.796 108.931 36.614 109.879 35.702C110.803 34.814 111.985 34.37 113.425 34.37C114.877 34.37 116.059 34.808 116.971 35.684C117.907 36.596 118.375 37.766 118.375 39.194V39.338C118.375 40.79 117.901 41.972 116.953 42.884C116.041 43.76 114.859 44.198 113.407 44.198ZM119.209 34.586H121.945L123.619 40.922L125.437 34.586H127.579L129.235 40.922L131.017 34.586H133.519L130.549 44H127.993L126.391 38.096L124.663 44H122.071L119.209 34.586ZM138.575 44.198C137.303 44.198 136.313 43.928 135.605 43.388C134.897 42.848 134.519 42.068 134.471 41.048H136.901C136.973 41.504 137.129 41.84 137.369 42.056C137.609 42.272 138.005 42.38 138.557 42.38C139.541 42.38 140.033 42.038 140.033 41.354C140.033 41.03 139.889 40.79 139.601 40.634C139.313 40.466 138.821 40.334 138.125 40.238C136.853 40.034 135.965 39.728 135.461 39.32C134.921 38.9 134.651 38.228 134.651 37.304C134.651 36.38 135.035 35.642 135.803 35.09C136.463 34.61 137.321 34.37 138.377 34.37C139.469 34.37 140.351 34.586 141.023 35.018C141.731 35.498 142.145 36.254 142.265 37.286H139.871C139.799 36.89 139.649 36.602 139.421 36.422C139.193 36.242 138.851 36.152 138.395 36.152C137.975 36.152 137.645 36.242 137.405 36.422C137.177 36.602 137.063 36.836 137.063 37.124C137.063 37.424 137.189 37.646 137.441 37.79C137.705 37.934 138.185 38.054 138.881 38.15C140.117 38.318 141.023 38.6 141.599 38.996C142.223 39.464 142.535 40.166 142.535 41.102C142.535 42.11 142.187 42.878 141.491 43.406C140.807 43.934 139.835 44.198 138.575 44.198Z" fill="#F5F5F7"/>
<path d="M35.1672 13H20V28.1672H35.1672V13Z" fill="#F5F5F7"/>
<path d="M51.9983 13H36.831V28.1672H51.9983V13Z" fill="#F5F5F7"/>
<path d="M35.1672 29.8328H20V45H35.1672V29.8328Z" fill="#F5F5F7"/>
<path d="M51.9983 29.8328H36.831V45H51.9983V29.8328Z" fill="#F5F5F7"/>
</svg>
