<svg width="150" height="58" viewBox="0 0 150 58" fill="none" xmlns="http://www.w3.org/2000/svg">
<rect width="150" height="58" rx="7" fill="#151C2A"/>
<path d="M66.74 22.108C65.5 22.108 64.52 21.716 63.8 20.932C63.088 20.148 62.732 19.092 62.732 17.764V17.668C62.732 16.396 63.112 15.348 63.872 14.524C64.632 13.7 65.596 13.288 66.764 13.288C67.7 13.288 68.488 13.532 69.128 14.02C69.776 14.508 70.148 15.2 70.244 16.096H69.212C69.092 15.432 68.836 14.936 68.444 14.608C68.06 14.28 67.504 14.116 66.776 14.116C65.888 14.116 65.172 14.44 64.628 15.088C64.084 15.728 63.812 16.584 63.812 17.656V17.752C63.812 18.848 64.072 19.708 64.592 20.332C65.12 20.948 65.844 21.256 66.764 21.256C67.476 21.256 68.056 21.08 68.504 20.728C68.96 20.368 69.244 19.844 69.356 19.156H70.328C70.184 20.124 69.796 20.86 69.164 21.364C68.532 21.86 67.724 22.108 66.74 22.108ZM72.7696 18.796V22H71.7736V15.724H72.7696V18.652L75.3736 15.724H76.5376L73.8496 18.676L76.7656 22H75.5536L72.7696 18.796ZM79.5465 22.108C78.9305 22.108 78.4265 21.956 78.0345 21.652C77.6505 21.34 77.4585 20.876 77.4585 20.26C77.4585 19.916 77.5425 19.616 77.7105 19.36C77.8865 19.096 78.1265 18.892 78.4305 18.748C78.7345 18.596 79.0665 18.488 79.4265 18.424C79.7865 18.352 80.1785 18.316 80.6025 18.316H81.5025V17.86C81.5025 17.356 81.3985 16.996 81.1905 16.78C80.9825 16.556 80.6385 16.444 80.1585 16.444C79.2945 16.444 78.8145 16.82 78.7185 17.572H77.7225C77.7865 16.9 78.0465 16.408 78.5025 16.096C78.9665 15.776 79.5345 15.616 80.2065 15.616C81.7345 15.616 82.4985 16.364 82.4985 17.86V22H81.5025V21.208C81.0225 21.808 80.3705 22.108 79.5465 22.108ZM79.6425 21.316C80.1865 21.316 80.6305 21.184 80.9745 20.92C81.3265 20.648 81.5025 20.276 81.5025 19.804V19.024H80.6385C79.1825 19.024 78.4545 19.436 78.4545 20.26C78.4545 20.964 78.8505 21.316 79.6425 21.316ZM87.8086 22V19.072C87.3766 19.536 86.7766 19.768 86.0086 19.768C85.3926 19.768 84.8886 19.572 84.4966 19.18C84.1046 18.78 83.9086 18.172 83.9086 17.356V15.724H84.9046V17.308C84.9046 18.372 85.3606 18.904 86.2726 18.904C86.9526 18.904 87.4646 18.672 87.8086 18.208V15.724H88.8046V22H87.8086ZM92.4606 22.108C91.8446 22.108 91.3406 21.956 90.9486 21.652C90.5646 21.34 90.3726 20.876 90.3726 20.26C90.3726 19.916 90.4566 19.616 90.6246 19.36C90.8006 19.096 91.0406 18.892 91.3446 18.748C91.6486 18.596 91.9806 18.488 92.3406 18.424C92.7006 18.352 93.0926 18.316 93.5166 18.316H94.4166V17.86C94.4166 17.356 94.3126 16.996 94.1046 16.78C93.8966 16.556 93.5526 16.444 93.0726 16.444C92.2086 16.444 91.7286 16.82 91.6326 17.572H90.6366C90.7006 16.9 90.9606 16.408 91.4166 16.096C91.8806 15.776 92.4486 15.616 93.1206 15.616C94.6486 15.616 95.4126 16.364 95.4126 17.86V22H94.4166V21.208C93.9366 21.808 93.2846 22.108 92.4606 22.108ZM92.5566 21.316C93.1006 21.316 93.5446 21.184 93.8886 20.92C94.2406 20.648 94.4166 20.276 94.4166 19.804V19.024H93.5526C92.0966 19.024 91.3686 19.436 91.3686 20.26C91.3686 20.964 91.7646 21.316 92.5566 21.316ZM101.525 16.564H99.4973V22H98.5013V16.564H96.4733V15.724H101.525V16.564ZM102.899 15.724H103.895V17.92H105.011C105.715 17.92 106.291 18.092 106.739 18.436C107.187 18.78 107.411 19.292 107.411 19.972V20.008C107.411 20.696 107.187 21.2 106.739 21.52C106.299 21.84 105.723 22 105.011 22H102.899V15.724ZM105.071 21.22C105.551 21.22 105.895 21.12 106.103 20.92C106.311 20.712 106.415 20.408 106.415 20.008V19.972C106.415 19.54 106.307 19.224 106.091 19.024C105.883 18.816 105.543 18.712 105.071 18.712H103.895V21.22H105.071ZM113.228 19.576C113.14 20.312 113.004 20.84 112.82 21.16H115.76V16.54H113.456C113.416 17.516 113.34 18.528 113.228 19.576ZM111.98 23.524H111.176V21.16H111.62C111.844 21.104 112 20.944 112.088 20.68C112.176 20.408 112.252 20.02 112.316 19.516C112.388 18.868 112.456 18.052 112.52 17.068C112.552 16.628 112.576 16.18 112.592 15.724H116.732V21.16H117.692V23.524H116.888L116.816 22H112.052L111.98 23.524ZM120.317 19.576C120.245 20.44 120.093 21.072 119.861 21.472C119.629 21.864 119.265 22.06 118.769 22.06C118.665 22.06 118.557 22.052 118.445 22.036L118.349 22V21.052L118.433 21.076C118.513 21.092 118.597 21.1 118.685 21.1C118.813 21.1 118.917 21.064 118.997 20.992C119.085 20.912 119.153 20.788 119.201 20.62C119.257 20.452 119.297 20.296 119.321 20.152C119.345 20 119.373 19.788 119.405 19.516C119.437 19.228 119.485 18.412 119.549 17.068L119.585 15.724H123.725V22H122.729V16.564H120.473C120.401 18.292 120.349 19.296 120.317 19.576ZM127.826 16.516C126.93 16.516 126.482 16.896 126.482 17.656V17.692C126.482 18.052 126.586 18.324 126.794 18.508C127.002 18.692 127.346 18.784 127.826 18.784H129.002V16.516H127.826ZM126.17 22H125.03L126.938 19.372C125.97 19.172 125.486 18.612 125.486 17.692V17.656C125.486 17 125.71 16.516 126.158 16.204C126.606 15.884 127.182 15.724 127.886 15.724H129.998V22H129.002V19.54H127.922L126.17 22ZM63.517 30.932H67.4282L70.4805 39.0652L73.4962 30.932H77.3343V44H74.3918V34.825L70.7729 44H69.8042L66.1671 34.825V44H63.517V30.932ZM82.6341 44.201C81.708 44.201 80.9587 43.9756 80.386 43.5248C79.7524 43.0252 79.4356 42.3002 79.4356 41.3498C79.4356 40.2898 79.8986 39.4978 80.8247 38.9738C81.6532 38.5108 82.8473 38.2793 84.4069 38.2793H85.4853V37.8955C85.4853 37.2863 85.3695 36.8415 85.138 36.5613C84.9187 36.281 84.5166 36.1409 83.9317 36.1409C82.9935 36.1409 82.4513 36.5918 82.3051 37.4934H79.8012C79.8743 36.4212 80.319 35.5926 81.1354 35.0078C81.8786 34.4838 82.8656 34.2218 84.0962 34.2218C85.3269 34.2218 86.2895 34.4899 86.984 35.026C87.7272 35.6109 88.0989 36.5247 88.0989 37.7676V44H85.5218V42.8486C84.876 43.7502 83.9135 44.201 82.6341 44.201ZM83.42 42.3551C84.017 42.3551 84.5105 42.2028 84.9004 41.8982C85.2903 41.5935 85.4853 41.1793 85.4853 40.6553V39.8511H84.4618C83.6576 39.8511 83.0484 39.9547 82.6341 40.1618C82.232 40.369 82.0309 40.7162 82.0309 41.2036C82.0309 41.9713 82.494 42.3551 83.42 42.3551ZM94.9193 44.201C93.4815 44.201 92.3118 43.7807 91.4101 42.9399C90.4719 42.0626 90.0028 40.8625 90.0028 39.3394V39.1932C90.0028 37.6945 90.4841 36.476 91.4467 35.5378C92.3605 34.6605 93.5242 34.2218 94.9376 34.2218C96.1682 34.2218 97.1674 34.496 97.935 35.0443C98.8123 35.6779 99.3119 36.6405 99.4337 37.9321H96.9298C96.7714 36.8476 96.1256 36.3054 94.9924 36.3054C94.2857 36.3054 93.7252 36.5552 93.3109 37.0548C92.9088 37.5543 92.7078 38.255 92.7078 39.1566V39.3028C92.7078 40.2532 92.9088 40.9782 93.3109 41.4778C93.7252 41.9652 94.304 42.2089 95.0472 42.2089C95.6077 42.2089 96.0708 42.0505 96.4363 41.7337C96.814 41.4169 97.0333 40.9599 97.0943 40.3629H99.4885C99.4154 41.5448 98.9829 42.4647 98.1909 43.1227C97.3501 43.8416 96.2596 44.201 94.9193 44.201ZM109.112 40.6736C109.782 41.4534 110.659 41.8433 111.744 41.8433C112.828 41.8433 113.705 41.4473 114.376 40.6553C115.021 39.8755 115.344 38.8276 115.344 37.5117V37.3655C115.344 36.0983 115.027 35.0687 114.394 34.2767C113.724 33.4847 112.828 33.0887 111.707 33.0887C110.598 33.0887 109.709 33.4725 109.039 34.2401C108.393 34.9956 108.07 36.0434 108.07 37.3838V37.53C108.07 38.8581 108.417 39.906 109.112 40.6736ZM116.587 42.3002C115.344 43.5674 113.711 44.201 111.689 44.201C109.666 44.201 108.04 43.5674 106.809 42.3002C105.59 41.0818 104.981 39.4978 104.981 37.5482V37.402C104.981 35.4281 105.621 33.8319 106.9 32.6135C108.167 31.3706 109.77 30.7492 111.707 30.7492C113.693 30.7492 115.308 31.3524 116.55 32.5586C117.805 33.8137 118.433 35.4038 118.433 37.3289V37.4751C118.433 39.4369 117.818 41.0452 116.587 42.3002ZM125.184 44.201C123.441 44.201 122.113 43.8111 121.199 43.0313C120.334 42.2881 119.865 41.2463 119.792 39.906H122.625C122.71 40.6005 122.911 41.1001 123.228 41.4047C123.655 41.8311 124.306 42.0444 125.184 42.0444C125.842 42.0444 126.366 41.886 126.756 41.5692C127.145 41.2402 127.34 40.8198 127.34 40.3081C127.34 39.8085 127.17 39.4308 126.829 39.1749C126.451 38.9434 125.799 38.7545 124.873 38.6083C123.155 38.389 121.955 37.9869 121.272 37.402C120.529 36.8294 120.158 35.9094 120.158 34.6422C120.158 33.5334 120.59 32.6013 121.455 31.8458C122.345 31.1148 123.496 30.7492 124.91 30.7492C126.396 30.7492 127.554 31.0782 128.382 31.7362C129.211 32.3942 129.686 33.3689 129.808 34.6605H127.085C126.926 33.503 126.201 32.9242 124.91 32.9242C124.276 32.9242 123.789 33.0582 123.447 33.3263C123.118 33.5943 122.954 33.9538 122.954 34.4046C122.954 34.9042 123.112 35.2575 123.429 35.4647C123.758 35.7206 124.41 35.9216 125.385 36.0678C127.042 36.275 128.236 36.6466 128.967 37.1827C129.771 37.7919 130.173 38.7423 130.173 40.0339C130.173 41.2402 129.729 42.221 128.839 42.9765C127.901 43.7929 126.682 44.201 125.184 44.201Z" fill="#F5F5F7"/>
<path fill-rule="evenodd" clip-rule="evenodd" d="M44.9925 13H27.0075C25.149 13 23.3666 13.7383 22.0524 15.0524C20.7383 16.3666 20 18.149 20 20.0075V37.9925C20 39.851 20.7383 41.6334 22.0524 42.9475C23.3666 44.2617 25.149 45 27.0075 45H44.9925C46.851 45 48.6334 44.2617 49.9475 42.9475C51.2617 41.6334 52 39.851 52 37.9925V20.0075C52 18.149 51.2617 16.3666 49.9475 15.0524C48.6334 13.7383 46.851 13 44.9925 13ZM29.1637 38.125L30.25 36.2262C30.3632 36.0663 30.4255 35.8759 30.4288 35.68C30.3125 34.8462 28.7087 34.6712 28.7087 34.6712C28.0262 34.6075 27.685 34.95 27.5475 35.1487L27.47 35.2825L26.6638 36.6787C26.4963 37.0086 26.4615 37.39 26.5667 37.7447C26.6718 38.0993 26.9089 38.4002 27.2291 38.5854C27.5493 38.7706 27.9282 38.8262 28.2881 38.7405C28.648 38.6549 28.9613 38.4346 29.1637 38.125ZM42.3563 31.3862H45.7687L45.7738 31.3912C46.1573 31.3912 46.5252 31.5436 46.7964 31.8148C47.0676 32.0861 47.22 32.4539 47.22 32.8375C47.22 33.2211 47.0676 33.5889 46.7964 33.8602C46.5252 34.1314 46.1573 34.2837 45.7738 34.2837H44.05C43.79 34.2837 43.8325 34.4287 43.8575 34.4825L45.125 36.6787C45.2326 36.8433 45.3055 37.028 45.3393 37.2216C45.373 37.4153 45.367 37.6138 45.3215 37.805C45.276 37.9963 45.192 38.1762 45.0746 38.3339C44.9572 38.4915 44.8089 38.6236 44.6387 38.7221C44.4686 38.8205 44.2801 38.8832 44.0849 38.9064C43.8897 38.9295 43.6919 38.9127 43.5034 38.8568C43.3149 38.8009 43.1399 38.7072 42.9888 38.5814C42.8378 38.4556 42.714 38.3003 42.625 38.125L37.5513 29.325C37.28 28.7925 36.5037 27.0137 37.1838 25.45C37.1838 25.45 37.7537 24.0462 38.1125 24.595L38.3325 24.9087L41.9813 31.24C42.0306 31.2885 42.0892 31.3265 42.1537 31.3517C42.2182 31.3768 42.2871 31.3886 42.3563 31.3862ZM38.6213 34.2787C39.3263 34.2787 39.1437 33.3525 39.1437 33.3525H39.1462C38.875 31.4525 36.8237 31.4175 36.8237 31.4175V31.3837H33.3038C33.1113 31.3662 33.12 31.2687 33.145 31.2075L39.035 21.0062C39.1426 20.8417 39.2155 20.657 39.2493 20.4633C39.283 20.2697 39.277 20.0712 39.2315 19.88C39.186 19.6887 39.102 19.5088 38.9846 19.3511C38.8672 19.1935 38.7189 19.0614 38.5487 18.9629C38.3786 18.8645 38.1901 18.8018 37.9949 18.7786C37.7997 18.7555 37.6019 18.7723 37.4134 18.8282C37.2249 18.8841 37.0499 18.9778 36.8988 19.1036C36.7478 19.2294 36.624 19.3847 36.535 19.56L35.8875 20.685L35.24 19.56C35.151 19.3847 35.0272 19.2294 34.8762 19.1036C34.7251 18.9778 34.5501 18.8841 34.3616 18.8282C34.1731 18.7723 33.9753 18.7555 33.7801 18.7786C33.5849 18.8018 33.3964 18.8645 33.2263 18.9629C33.0561 19.0614 32.9078 19.1935 32.7904 19.3511C32.673 19.5088 32.589 19.6887 32.5435 19.88C32.498 20.0712 32.492 20.2697 32.5257 20.4633C32.5595 20.657 32.6324 20.8417 32.74 21.0062L34.1375 23.4275C34.161 23.4733 34.1732 23.5241 34.1732 23.5756C34.1732 23.6271 34.161 23.6779 34.1375 23.7237L29.8975 31.0537C29.8975 31.0537 29.7738 31.3562 29.25 31.3862H26.0113C25.6277 31.3862 25.2598 31.5386 24.9886 31.8098C24.7174 32.0811 24.565 32.4489 24.565 32.8325C24.565 33.2161 24.7174 33.5839 24.9886 33.8552C25.2598 34.1264 25.6277 34.2787 26.0113 34.2787H38.6213Z" fill="#F5F5F7"/>
</svg>
