<svg width="185" height="58" viewBox="0 0 185 58" fill="none" xmlns="http://www.w3.org/2000/svg">
<rect width="185" height="58" rx="7" fill="#151C2A"/>
<path d="M61.532 18.988C61.46 19.988 61.272 20.7 60.968 21.124H65.144V14.272H61.784C61.768 14.496 61.748 14.92 61.724 15.544C61.7 16.16 61.672 16.768 61.64 17.368C61.608 17.96 61.572 18.5 61.532 18.988ZM59.984 23.56H59.12V21.124H59.66C59.948 21.036 60.156 20.816 60.284 20.464C60.42 20.112 60.524 19.592 60.596 18.904C60.692 17.712 60.76 16.5 60.8 15.268C60.832 14.428 60.852 13.812 60.86 13.42H66.164V21.124H67.124V23.56H66.26L66.2 22H60.044L59.984 23.56ZM71.0632 21.28C71.6872 21.28 72.1832 21.064 72.5512 20.632C72.9272 20.2 73.1152 19.628 73.1152 18.916V18.832C73.1152 18.104 72.9272 17.524 72.5512 17.092C72.1832 16.66 71.6872 16.444 71.0632 16.444C70.4312 16.444 69.9312 16.66 69.5632 17.092C69.1952 17.524 69.0112 18.1 69.0112 18.82V18.916C69.0112 19.644 69.1912 20.22 69.5512 20.644C69.9192 21.068 70.4232 21.28 71.0632 21.28ZM71.0512 22.108C70.1632 22.108 69.4272 21.808 68.8432 21.208C68.2672 20.6 67.9792 19.836 67.9792 18.916V18.82C67.9792 17.884 68.2672 17.116 68.8432 16.516C69.4272 15.916 70.1672 15.616 71.0632 15.616C71.9592 15.616 72.6952 15.916 73.2712 16.516C73.8552 17.108 74.1472 17.872 74.1472 18.808V18.904C74.1472 19.848 73.8552 20.62 73.2712 21.22C72.6872 21.812 71.9472 22.108 71.0512 22.108ZM78.2934 22.108C77.3974 22.108 76.6614 21.82 76.0854 21.244C75.5094 20.66 75.2214 19.888 75.2214 18.928V18.832C75.2214 17.888 75.5134 17.116 76.0974 16.516C76.6894 15.916 77.4134 15.616 78.2694 15.616C78.9894 15.616 79.6014 15.796 80.1054 16.156C80.6094 16.508 80.9054 17.06 80.9934 17.812H80.0094C79.8654 16.9 79.2854 16.444 78.2694 16.444C77.6854 16.444 77.2014 16.664 76.8174 17.104C76.4414 17.536 76.2534 18.112 76.2534 18.832V18.928C76.2534 19.68 76.4374 20.26 76.8054 20.668C77.1814 21.076 77.6814 21.28 78.3054 21.28C78.7774 21.28 79.1814 21.148 79.5174 20.884C79.8614 20.612 80.0574 20.232 80.1054 19.744H81.0294C80.9654 20.432 80.6774 21 80.1654 21.448C79.6614 21.888 79.0374 22.108 78.2934 22.108ZM86.8651 16.564H84.8371V22H83.8411V16.564H81.8131V15.724H86.8651V16.564ZM90.2383 21.352L87.7783 15.724H88.8463L90.7663 20.224L92.5063 15.724H93.5263L90.0583 24.184H89.0503L90.2383 21.352ZM98.7258 16.564H95.7618V22H94.7658V15.724H99.7218V22H98.7258V16.564ZM105.818 19.204H102.734V22H101.738V15.724H102.734V18.364H105.818V15.724H106.814V22H105.818V19.204ZM111.516 21.28C112.14 21.28 112.636 21.064 113.004 20.632C113.38 20.2 113.568 19.628 113.568 18.916V18.832C113.568 18.104 113.38 17.524 113.004 17.092C112.636 16.66 112.14 16.444 111.516 16.444C110.884 16.444 110.384 16.66 110.016 17.092C109.648 17.524 109.464 18.1 109.464 18.82V18.916C109.464 19.644 109.644 20.22 110.004 20.644C110.372 21.068 110.876 21.28 111.516 21.28ZM111.504 22.108C110.616 22.108 109.88 21.808 109.296 21.208C108.72 20.6 108.432 19.836 108.432 18.916V18.82C108.432 17.884 108.72 17.116 109.296 16.516C109.88 15.916 110.62 15.616 111.516 15.616C112.412 15.616 113.148 15.916 113.724 16.516C114.308 17.108 114.6 17.872 114.6 18.808V18.904C114.6 19.848 114.308 20.62 113.724 21.22C113.14 21.812 112.4 22.108 111.504 22.108ZM119.246 15.724H121.442C122.914 15.724 123.65 16.256 123.65 17.32V17.356C123.65 17.66 123.566 17.94 123.398 18.196C123.23 18.444 122.978 18.612 122.642 18.7C123.514 18.892 123.95 19.364 123.95 20.116V20.152C123.95 20.76 123.75 21.22 123.35 21.532C122.958 21.844 122.41 22 121.706 22H119.246V15.724ZM120.242 16.516V18.376H121.442C121.858 18.376 122.154 18.3 122.33 18.148C122.514 17.996 122.606 17.748 122.606 17.404V17.368C122.606 17.048 122.51 16.828 122.318 16.708C122.134 16.58 121.838 16.516 121.43 16.516H120.242ZM120.242 19.168V21.208H121.61C122.05 21.208 122.374 21.132 122.582 20.98C122.798 20.82 122.906 20.564 122.906 20.212V20.176C122.906 19.824 122.798 19.568 122.582 19.408C122.374 19.248 122.05 19.168 121.61 19.168H120.242ZM66.38 44.198C64.316 44.198 62.702 43.58 61.538 42.344C60.398 41.18 59.828 39.614 59.828 37.646V37.502C59.828 35.558 60.446 33.98 61.682 32.768C62.906 31.544 64.472 30.932 66.38 30.932C67.928 30.932 69.2 31.28 70.196 31.976C71.336 32.792 71.972 33.944 72.104 35.432H69.206C68.942 33.968 68.012 33.236 66.416 33.236C65.3 33.236 64.43 33.62 63.806 34.388C63.182 35.156 62.87 36.206 62.87 37.538V37.682C62.87 39.002 63.152 40.022 63.716 40.742C64.316 41.546 65.228 41.948 66.452 41.948C67.472 41.948 68.252 41.678 68.792 41.138C69.272 40.67 69.524 40.034 69.548 39.23H66.65V37.106H72.428V38.474C72.428 40.214 71.9 41.594 70.844 42.614C69.764 43.67 68.276 44.198 66.38 44.198ZM78.9079 42.218C79.6399 42.218 80.2039 41.966 80.5999 41.462C81.0079 40.958 81.2119 40.256 81.2119 39.356V39.23C81.2119 38.33 81.0079 37.628 80.5999 37.124C80.2039 36.608 79.6399 36.35 78.9079 36.35C78.1879 36.35 77.6239 36.602 77.2159 37.106C76.8079 37.598 76.6039 38.294 76.6039 39.194V39.338C76.6039 40.25 76.8019 40.958 77.1979 41.462C77.5939 41.966 78.1639 42.218 78.9079 42.218ZM78.8899 44.198C77.4499 44.198 76.2739 43.76 75.3619 42.884C74.4139 42.008 73.9399 40.844 73.9399 39.392V39.248C73.9399 37.796 74.4139 36.614 75.3619 35.702C76.2859 34.814 77.4679 34.37 78.9079 34.37C80.3599 34.37 81.5419 34.808 82.4539 35.684C83.3899 36.596 83.8579 37.766 83.8579 39.194V39.338C83.8579 40.79 83.3839 41.972 82.4359 42.884C81.5239 43.76 80.3419 44.198 78.8899 44.198ZM90.2106 42.218C90.9426 42.218 91.5066 41.966 91.9026 41.462C92.3106 40.958 92.5146 40.256 92.5146 39.356V39.23C92.5146 38.33 92.3106 37.628 91.9026 37.124C91.5066 36.608 90.9426 36.35 90.2106 36.35C89.4906 36.35 88.9266 36.602 88.5186 37.106C88.1106 37.598 87.9066 38.294 87.9066 39.194V39.338C87.9066 40.25 88.1046 40.958 88.5006 41.462C88.8966 41.966 89.4666 42.218 90.2106 42.218ZM90.1926 44.198C88.7526 44.198 87.5766 43.76 86.6646 42.884C85.7166 42.008 85.2426 40.844 85.2426 39.392V39.248C85.2426 37.796 85.7166 36.614 86.6646 35.702C87.5886 34.814 88.7706 34.37 90.2106 34.37C91.6626 34.37 92.8446 34.808 93.7566 35.684C94.6926 36.596 95.1606 37.766 95.1606 39.194V39.338C95.1606 40.79 94.6866 41.972 93.7386 42.884C92.8266 43.76 91.6446 44.198 90.1926 44.198ZM101.297 47.474C99.8093 47.474 98.6813 47.174 97.9133 46.574C97.1813 46.034 96.7493 45.242 96.6173 44.198H99.2093C99.3893 45.11 100.085 45.566 101.297 45.566C102.881 45.566 103.673 44.798 103.673 43.262V41.84C103.361 42.368 102.965 42.77 102.485 43.046C101.933 43.406 101.321 43.586 100.649 43.586C99.4613 43.586 98.4953 43.184 97.7513 42.38C96.9473 41.54 96.5453 40.442 96.5453 39.086V38.96C96.5453 37.616 96.9413 36.512 97.7333 35.648C98.5253 34.796 99.5093 34.37 100.685 34.37C102.041 34.37 103.037 34.91 103.673 35.99V34.586H106.265V43.262C106.253 44.642 105.815 45.686 104.951 46.394C104.099 47.114 102.881 47.474 101.297 47.474ZM101.423 41.624C102.119 41.624 102.677 41.396 103.097 40.94C103.529 40.472 103.745 39.842 103.745 39.05V38.924C103.745 38.12 103.547 37.49 103.151 37.034C102.755 36.578 102.197 36.35 101.477 36.35C100.757 36.35 100.199 36.584 99.8033 37.052C99.4073 37.52 99.2093 38.15 99.2093 38.942V39.086C99.2093 39.866 99.4133 40.484 99.8213 40.94C100.229 41.396 100.763 41.624 101.423 41.624ZM108.865 30.32H111.457V44H108.865V30.32ZM118.387 44.198C116.923 44.198 115.753 43.772 114.877 42.92C113.941 42.056 113.473 40.886 113.473 39.41V39.266C113.473 37.802 113.941 36.614 114.877 35.702C115.789 34.814 116.935 34.37 118.315 34.37C119.623 34.37 120.691 34.748 121.519 35.504C122.443 36.344 122.905 37.562 122.905 39.158V39.878H116.119C116.155 40.67 116.371 41.282 116.767 41.714C117.175 42.134 117.739 42.344 118.459 42.344C119.587 42.344 120.241 41.906 120.421 41.03H122.887C122.731 42.05 122.263 42.836 121.483 43.388C120.715 43.928 119.683 44.198 118.387 44.198ZM120.367 38.276C120.283 36.872 119.599 36.17 118.315 36.17C117.727 36.17 117.241 36.356 116.857 36.728C116.485 37.088 116.251 37.604 116.155 38.276H120.367ZM129.049 31.13H133.495C135.091 31.13 136.309 31.478 137.149 32.174C137.989 32.858 138.409 33.878 138.409 35.234V35.306C138.409 36.638 137.971 37.646 137.095 38.33C136.255 38.99 135.085 39.32 133.585 39.32H131.947V44H129.049V31.13ZM133.423 37.286C134.875 37.286 135.601 36.632 135.601 35.324V35.252C135.601 33.98 134.875 33.344 133.423 33.344H131.947V37.286H133.423ZM140.365 30.32H142.957V44H140.365V30.32ZM148.087 44.198C147.175 44.198 146.437 43.976 145.873 43.532C145.249 43.04 144.937 42.326 144.937 41.39C144.937 40.346 145.393 39.566 146.305 39.05C147.121 38.594 148.297 38.366 149.833 38.366H150.895V37.988C150.895 37.388 150.781 36.95 150.553 36.674C150.337 36.398 149.941 36.26 149.365 36.26C148.441 36.26 147.907 36.704 147.763 37.592H145.297C145.369 36.536 145.807 35.72 146.611 35.144C147.343 34.628 148.315 34.37 149.527 34.37C150.739 34.37 151.687 34.634 152.371 35.162C153.103 35.738 153.469 36.638 153.469 37.862V44H150.931V42.866C150.295 43.754 149.347 44.198 148.087 44.198ZM148.861 42.38C149.449 42.38 149.935 42.23 150.319 41.93C150.703 41.63 150.895 41.222 150.895 40.706V39.914H149.887C149.095 39.914 148.495 40.016 148.087 40.22C147.691 40.424 147.493 40.766 147.493 41.246C147.493 42.002 147.949 42.38 148.861 42.38ZM158.5 43.046L154.756 34.586H157.564L159.85 40.238L161.956 34.586H164.458L159.364 47.204H156.844L158.5 43.046Z" fill="#F5F5F7"/>
<path d="M25.0188 13.8132L42.5773 23.8748L38.8141 27.6252L25.0188 13.8132ZM21.3807 13L37.4987 29L21.3823 45C20.9719 44.8219 20.6226 44.5284 20.377 44.1554C20.1315 43.7824 20.0005 43.3461 20 42.9C20 42.8692 20 42.8388 20 42.8092V15.188C20 15.1628 20 15.132 20 15.1012C20 14.6576 20.1292 14.2236 20.372 13.8518C20.6147 13.48 20.9606 13.1865 21.3675 13.0068L21.3823 13H21.3807ZM48.0348 27.1252C48.3166 27.332 48.5456 27.602 48.7034 27.9133C48.8611 28.2246 48.9433 28.5685 48.9431 28.9172C48.9431 28.9468 48.9431 28.9748 48.9431 29.004V29C48.9484 29.0572 48.9524 29.1252 48.9524 29.1932C48.9527 29.5198 48.8758 29.8418 48.7279 30.1333C48.5801 30.4247 48.3655 30.6774 48.1015 30.8708L48.0962 30.8748L44.3314 33L40.2562 29L44.333 24.9372L48.0348 27.1252ZM25.0188 44.1868L38.8153 30.3748L42.5789 34.1252L25.0188 44.1868Z" fill="#F5F5F7"/>
</svg>
