<svg width="79" height="69" viewBox="0 0 79 69" fill="none" xmlns="http://www.w3.org/2000/svg">
<circle cx="39.1235" cy="29.5714" r="29.5714" fill="#F88308"/>
<path fill-rule="evenodd" clip-rule="evenodd" d="M74.9332 34.5C72.5294 52.1296 57.4129 65.7143 39.1235 65.7143C20.8342 65.7143 5.71769 52.1296 3.3139 34.5H0C2.42534 53.9497 19.0168 69 39.1235 69C59.2302 69 75.8217 53.9497 78.2471 34.5H74.9332Z" fill="#F5F5F7"/>
<path d="M45.1406 31.0659H40.9581C39.6404 31.0646 38.3587 31.4922 37.3095 32.283C36.2604 33.0739 35.5018 34.1843 35.1501 35.444C34.7984 36.7037 34.8731 38.0431 35.3626 39.2567C35.8521 40.4703 36.7294 41.491 37.86 42.1624L44.3061 45.9997H56.0227L40.9682 37.0381H45.1507C48.3451 37.0381 51.4086 35.7793 53.6673 33.5387C55.926 31.298 57.195 28.2591 57.195 25.0903C57.195 21.9216 55.926 18.8826 53.6673 16.642C51.4086 14.4014 48.3451 13.1426 45.1507 13.1426H30.0861C27.6913 13.1461 25.3955 14.0914 23.7021 15.7713C22.0086 17.4512 21.0557 19.7285 21.0521 22.1042V45.9997H27.0759V22.1042C27.0768 21.3125 27.3943 20.5535 27.9586 19.9937C28.5229 19.4339 29.2881 19.119 30.0861 19.1181H45.1406C45.9434 19.0993 46.742 19.2398 47.4893 19.5316C48.2365 19.8233 48.9175 20.2603 49.492 20.8169C50.0665 21.3735 50.5231 22.0384 50.8348 22.7726C51.1465 23.5068 51.3071 24.2954 51.3071 25.092C51.3071 25.8886 51.1465 26.6772 50.8348 27.4114C50.5231 28.1456 50.0665 28.8105 49.492 29.3671C48.9175 29.9237 48.2365 30.3607 47.4893 30.6524C46.742 30.9442 45.9434 31.0847 45.1406 31.0659Z" fill="#F5F5F7"/>
</svg>
