<svg width="185" height="42" viewBox="0 0 185 42" fill="none" xmlns="http://www.w3.org/2000/svg">
<path d="M62.992 10.84H69.136C71.216 10.84 72.824 11.264 73.96 12.112C75.16 13.008 75.76 14.32 75.76 16.048V16.144C75.76 17.392 75.424 18.4 74.752 19.168C74.128 19.888 73.288 20.4 72.232 20.704L76.768 28H72.64L68.536 21.376H66.856V28H62.992V10.84ZM69.04 18.736C70.992 18.736 71.968 17.912 71.968 16.264V16.168C71.968 15.32 71.728 14.72 71.248 14.368C70.768 14 70.032 13.816 69.04 13.816H66.856V18.736H69.04ZM84.4735 25.624C85.4495 25.624 86.2015 25.288 86.7295 24.616C87.2735 23.944 87.5455 23.008 87.5455 21.808V21.64C87.5455 20.44 87.2735 19.504 86.7295 18.832C86.2015 18.144 85.4495 17.8 84.4735 17.8C83.5135 17.8 82.7615 18.136 82.2175 18.808C81.6735 19.464 81.4015 20.392 81.4015 21.592V21.784C81.4015 23 81.6655 23.944 82.1935 24.616C82.7215 25.288 83.4815 25.624 84.4735 25.624ZM84.4495 28.264C82.5295 28.264 80.9615 27.68 79.7455 26.512C78.4815 25.344 77.8495 23.792 77.8495 21.856V21.664C77.8495 19.728 78.4815 18.152 79.7455 16.936C80.9775 15.752 82.5535 15.16 84.4735 15.16C86.4095 15.16 87.9855 15.744 89.2015 16.912C90.4495 18.128 91.0735 19.688 91.0735 21.592V21.784C91.0735 23.72 90.4415 25.296 89.1775 26.512C87.9615 27.68 86.3855 28.264 84.4495 28.264ZM93.6878 9.76H97.1678V20.752L101.2 15.448H104.896L100.336 21.16L105.256 28H101.32L97.1678 22.072V28H93.6878V9.76ZM112.48 28.264C110.528 28.264 108.968 27.696 107.8 26.56C106.552 25.408 105.928 23.848 105.928 21.88V21.688C105.928 19.736 106.552 18.152 107.8 16.936C109.016 15.752 110.544 15.16 112.384 15.16C114.128 15.16 115.552 15.664 116.656 16.672C117.888 17.792 118.504 19.416 118.504 21.544V22.504H109.456C109.504 23.56 109.792 24.376 110.32 24.952C110.864 25.512 111.616 25.792 112.576 25.792C114.08 25.792 114.952 25.208 115.192 24.04H118.48C118.272 25.4 117.648 26.448 116.608 27.184C115.584 27.904 114.208 28.264 112.48 28.264ZM115.12 20.368C115.008 18.496 114.096 17.56 112.384 17.56C111.6 17.56 110.952 17.808 110.44 18.304C109.944 18.784 109.632 19.472 109.504 20.368H115.12ZM125.647 28.24C122.943 28.24 121.591 26.92 121.591 24.28V17.92H119.983V15.448H121.591V12.736H125.047V15.448H127.687V17.92H125.047V23.968C125.047 24.96 125.511 25.456 126.439 25.456C126.951 25.456 127.391 25.376 127.759 25.216V27.904C127.119 28.128 126.415 28.24 125.647 28.24ZM134.631 10.84H138.735L142.815 24.016L146.895 10.84H150.543L144.831 28H140.367L134.631 10.84ZM153.133 10.84H159.061C161.189 10.84 162.813 11.304 163.933 12.232C165.053 13.144 165.613 14.504 165.613 16.312V16.408C165.613 18.184 165.029 19.528 163.861 20.44C162.741 21.32 161.181 21.76 159.181 21.76H156.997V28H153.133V10.84ZM158.965 19.048C160.901 19.048 161.869 18.176 161.869 16.432V16.336C161.869 14.64 160.901 13.792 158.965 13.792H156.997V19.048H158.965ZM168.437 10.84H172.949L179.477 22.144V10.84H182.933V28H179.045L171.893 15.784V28H168.437V10.84Z" fill="#F5F5F7"/>
<circle cx="24" cy="18" r="18" fill="#F88308"/>
<path fill-rule="evenodd" clip-rule="evenodd" d="M0.185669 21C1.66196 32.8389 11.7611 42 24 42C36.2388 42 46.338 32.8389 47.8143 21H45.7971C44.334 31.7311 35.1326 40 24 40C12.8673 40 3.66601 31.7311 2.20283 21H0.185669Z" fill="#F5F5F7"/>
<path d="M27.6625 18.9098H25.1166C24.3146 18.9091 23.5344 19.1693 22.8958 19.6507C22.2572 20.1321 21.7955 20.808 21.5814 21.5748C21.3673 22.3416 21.4127 23.1568 21.7107 23.8955C22.0086 24.6342 22.5427 25.2556 23.2309 25.6642L27.1546 28H34.2864L25.1228 22.5451H27.6687C29.6131 22.5451 31.4778 21.7789 32.8527 20.415C34.2276 19.0511 35 17.2013 35 15.2725C35 13.3437 34.2276 11.4939 32.8527 10.1301C31.4778 8.76621 29.6131 8 27.6687 8H18.499C17.0412 8.00216 15.6438 8.57757 14.613 9.60009C13.5822 10.6226 13.0022 12.0088 13 13.4549V28H16.6667V13.4549C16.6672 12.973 16.8604 12.511 17.2039 12.1703C17.5474 11.8295 18.0132 11.6378 18.499 11.6373H27.6625C28.1512 11.6258 28.6373 11.7114 29.0922 11.8889C29.547 12.0665 29.9615 12.3325 30.3112 12.6713C30.6609 13.0101 30.9388 13.4149 31.1286 13.8618C31.3183 14.3086 31.416 14.7887 31.416 15.2736C31.416 15.7585 31.3183 16.2385 31.1286 16.6854C30.9388 17.1322 30.6609 17.537 30.3112 17.8758C29.9615 18.2146 29.547 18.4806 29.0922 18.6582C28.6373 18.8358 28.1512 18.9213 27.6625 18.9098Z" fill="#F5F5F7"/>
</svg>
