<svg width="504" height="707" viewBox="0 0 504 707" fill="none" xmlns="http://www.w3.org/2000/svg">
<g opacity="0.1">
<circle cx="-37.5078" cy="409.286" r="409.286" fill="#F88308"/>
<path fill-rule="evenodd" clip-rule="evenodd" d="M458.118 477.5C424.848 721.504 215.628 909.524 -37.5078 909.524C-290.643 909.524 -499.864 721.504 -533.134 477.5L-579 477.5C-545.432 746.695 -315.796 955 -37.5078 955C240.78 955 470.417 746.695 503.985 477.5L458.118 477.5Z" fill="#F5F5F7"/>
<path d="M45.7717 429.974H-12.1171C-30.3545 429.956 -48.0942 435.874 -62.6147 446.82C-77.1352 457.766 -87.6346 473.135 -92.5023 490.57C-97.3701 508.005 -96.3372 526.542 -89.5622 543.339C-82.7871 560.136 -70.6441 574.264 -54.996 583.555L34.222 636.667H196.386L-11.9768 512.632H45.912C90.1234 512.632 132.524 495.21 163.786 464.198C195.048 433.187 212.611 391.126 212.611 347.268C212.611 303.411 195.048 261.35 163.786 230.339C132.524 199.327 90.1234 181.905 45.912 181.905H-162.591C-195.737 181.954 -227.512 195.038 -250.95 218.288C-274.388 241.538 -287.577 273.058 -287.627 305.939V636.667H-204.254V305.939C-204.241 294.982 -199.848 284.477 -192.037 276.728C-184.227 268.98 -173.637 264.622 -162.591 264.61H45.7717C56.8834 264.349 67.9357 266.294 78.2784 270.332C88.6211 274.37 98.0455 280.418 105.997 288.122C113.949 295.826 120.268 305.029 124.582 315.19C128.897 325.351 131.119 336.266 131.119 347.292C131.119 358.317 128.897 369.232 124.582 379.393C120.268 389.555 113.949 398.758 105.997 406.461C98.0455 414.165 88.6211 420.214 78.2784 424.251C67.9357 428.289 56.8834 430.235 45.7717 429.974Z" fill="#F5F5F7"/>
</g>
</svg>
