<svg width="30" height="18" viewBox="0 0 30 18" fill="none" xmlns="http://www.w3.org/2000/svg">
<path d="M18.4777 1.92524H10.6019V16.0748H18.4777V1.92524Z" fill="#FF5A00"/>
<path d="M11.1262 9C11.1262 6.12524 12.4777 3.57379 14.5515 1.92524C13.0252 0.725243 11.1 0 9 0C4.02524 0 0 4.02524 0 9C0 13.9748 4.02524 18 9 18C11.1 18 13.0252 17.2748 14.5515 16.0748C12.4748 14.4495 11.1262 11.8748 11.1262 9Z" fill="#EB001B"/>
<path d="M29.1029 9C29.1029 13.9748 25.0777 18 20.1029 18C18.0029 18 16.0777 17.2748 14.5515 16.0748C16.6515 14.4233 17.9767 11.8748 17.9767 9C17.9767 6.12524 16.6252 3.57379 14.5515 1.92524C16.0748 0.725243 18 0 20.1 0C25.0777 0 29.1029 4.05146 29.1029 9Z" fill="#F79E1B"/>
</svg>
