<svg width="66" height="18" viewBox="0 0 66 18" fill="none" xmlns="http://www.w3.org/2000/svg">
<path fill-rule="evenodd" clip-rule="evenodd" d="M6.10217 0.00307161C6.69171 -0.000455199 8.44377 -0.158255 9.18591 2.34646C9.68582 4.03367 10.4822 6.7974 11.5749 10.6376H12.0199C13.1918 6.58899 13.9968 3.82526 14.435 2.34646C15.1849 -0.184346 17.0595 0.00312121 17.8094 0.00312121L23.5948 0.00312842V18H17.6982V7.39413H17.3028L14.0157 18H9.57917L6.29208 7.38627H5.89666V18H0V0.00312842L6.10217 0.00307161ZM32.0623 0.00312842V10.6169H32.5327L36.5312 1.88926C37.3074 0.152447 38.9616 0.00312842 38.9616 0.00312842H44.6678V18H38.648V7.38627H38.1776L34.2576 16.1139C33.4814 17.8428 31.7487 18 31.7487 18H26.0425V0.00312842H32.0623ZM65.475 8.55536C64.6353 10.9349 61.9983 12.639 59.0788 12.639H52.7658V18H47.0413V8.55536H65.475Z" fill="#0F754E"/>
<path fill-rule="evenodd" clip-rule="evenodd" d="M59.3549 0.00312842H46.7411C47.0413 4.00984 50.4918 7.43985 54.0638 7.43985H65.8728C66.5542 4.1098 64.2083 0.00312842 59.3549 0.00312842Z" fill="url(#paint0_linear_64_763)"/>
<defs>
<linearGradient id="paint0_linear_64_763" x1="65.9886" y1="4.68115" x2="46.7411" y2="4.68115" gradientUnits="userSpaceOnUse">
<stop stop-color="#1F5CD7"/>
<stop offset="1" stop-color="#02AEFF"/>
</linearGradient>
</defs>
</svg>
