<svg width="89" height="78" viewBox="0 0 89 78" fill="none" xmlns="http://www.w3.org/2000/svg">
<circle cx="44.4286" cy="33.4286" r="31.4286" stroke="#F88308" stroke-width="4"/>
<path fill-rule="evenodd" clip-rule="evenodd" d="M84.7072 38.9999C81.9898 58.929 64.9016 74.2857 44.2267 74.2857C23.5517 74.2857 6.46348 58.929 3.74615 38.9999H-8.72555e-06C2.74169 60.9865 21.4973 78 44.2267 78C66.956 78 85.7116 60.9865 88.4533 38.9999H84.7072Z" fill="#F5F5F7"/>
<g filter="url(#filter0_d_195_56)">
<path d="M38.3816 34.94V49H33.9736V39.88H30.8006V37.334C32.0546 37.334 32.9856 37.1883 33.5936 36.897C34.2143 36.6057 34.5943 36.2953 34.7336 35.966C34.873 35.624 34.9426 35.282 34.9426 34.94H38.3816ZM57.2832 45.618V49H39.6322V47.195C39.6322 45.5737 40.0122 44.3323 40.7722 43.471C41.5322 42.597 42.3746 42.0143 43.2992 41.723C44.2366 41.419 45.3829 41.1593 46.7382 40.944C47.2702 40.8553 47.8529 40.7793 48.4862 40.716C49.3222 40.6147 49.9746 40.5197 50.4432 40.431C50.9246 40.3423 51.3236 40.203 51.6402 40.013C51.9569 39.8103 52.1152 39.5443 52.1152 39.215C52.1152 38.6577 51.7289 38.2523 50.9562 37.999C50.1836 37.733 49.2462 37.6 48.1442 37.6C47.0929 37.6127 46.1999 37.7837 45.4652 38.113C44.7306 38.4297 44.3632 38.9237 44.3632 39.595H39.6322C39.6322 37.6443 40.5126 36.3143 42.2732 35.605C44.0339 34.883 45.9909 34.522 48.1442 34.522C50.4369 34.522 52.4699 34.826 54.2432 35.434C56.0292 36.042 56.9222 37.315 56.9222 39.253C56.9222 40.2663 56.5866 41.077 55.9152 41.685C55.2439 42.2803 54.4839 42.7047 53.6352 42.958C52.7992 43.2113 51.8619 43.4267 50.8232 43.604L50.2152 43.718C50.1519 43.718 49.9492 43.7497 49.6072 43.813C47.9226 44.0537 46.5292 44.3133 45.4272 44.592C44.3379 44.858 43.7932 45.2 43.7932 45.618H57.2832Z" fill="white"/>
</g>
<g filter="url(#filter1_d_195_56)">
<path d="M47.6637 23.1824H45.8121C45.2288 23.1818 44.6614 23.377 44.197 23.738C43.7325 24.0991 43.3967 24.606 43.241 25.1811C43.0853 25.7562 43.1184 26.3676 43.3351 26.9217C43.5518 27.4757 43.9401 27.9417 44.4406 28.2482L47.2943 30H52.481L45.8166 25.9088H47.6682C49.0823 25.9088 50.4384 25.3342 51.4383 24.3113C52.4383 23.2884 53 21.901 53 20.4544C53 19.0078 52.4383 17.6205 51.4383 16.5976C50.4384 15.5747 49.0823 15 47.6682 15H40.9993C39.9391 15.0016 38.9228 15.4332 38.1731 16.2001C37.4234 16.967 37.0016 18.0066 37 19.0912V30H39.6667V19.0912C39.6671 18.7298 39.8076 18.3833 40.0574 18.1277C40.3072 17.8721 40.6459 17.7284 40.9993 17.728H47.6637C48.0191 17.7194 48.3726 17.7835 48.7034 17.9167C49.0342 18.0499 49.3356 18.2494 49.59 18.5035C49.8443 18.7576 50.0464 19.0612 50.1844 19.3963C50.3224 19.7315 50.3935 20.0915 50.3935 20.4552C50.3935 20.8188 50.3224 21.1789 50.1844 21.514C50.0464 21.8492 49.8443 22.1527 49.59 22.4068C49.3356 22.6609 49.0342 22.8604 48.7034 22.9936C48.3726 23.1268 48.0191 23.191 47.6637 23.1824Z" fill="#F5F5F7"/>
</g>
<defs>
<filter id="filter0_d_195_56" x="30.8006" y="34.522" width="28.4826" height="15.478" filterUnits="userSpaceOnUse" color-interpolation-filters="sRGB">
<feFlood flood-opacity="0" result="BackgroundImageFix"/>
<feColorMatrix in="SourceAlpha" type="matrix" values="0 0 0 0 0 0 0 0 0 0 0 0 0 0 0 0 0 0 127 0" result="hardAlpha"/>
<feOffset dx="2" dy="1"/>
<feComposite in2="hardAlpha" operator="out"/>
<feColorMatrix type="matrix" values="0 0 0 0 0.972549 0 0 0 0 0.513726 0 0 0 0 0.0313726 0 0 0 1 0"/>
<feBlend mode="normal" in2="BackgroundImageFix" result="effect1_dropShadow_195_56"/>
<feBlend mode="normal" in="SourceGraphic" in2="effect1_dropShadow_195_56" result="shape"/>
</filter>
<filter id="filter1_d_195_56" x="37" y="15" width="18" height="16" filterUnits="userSpaceOnUse" color-interpolation-filters="sRGB">
<feFlood flood-opacity="0" result="BackgroundImageFix"/>
<feColorMatrix in="SourceAlpha" type="matrix" values="0 0 0 0 0 0 0 0 0 0 0 0 0 0 0 0 0 0 127 0" result="hardAlpha"/>
<feOffset dx="2" dy="1"/>
<feComposite in2="hardAlpha" operator="out"/>
<feColorMatrix type="matrix" values="0 0 0 0 0.972549 0 0 0 0 0.513726 0 0 0 0 0.0313726 0 0 0 1 0"/>
<feBlend mode="normal" in2="BackgroundImageFix" result="effect1_dropShadow_195_56"/>
<feBlend mode="normal" in="SourceGraphic" in2="effect1_dropShadow_195_56" result="shape"/>
</filter>
</defs>
</svg>
