<svg width="89" height="78" viewBox="0 0 89 78" fill="none" xmlns="http://www.w3.org/2000/svg">
<circle cx="44.4286" cy="33.4286" r="31.4286" stroke="#F88308" stroke-width="4"/>
<path fill-rule="evenodd" clip-rule="evenodd" d="M84.7072 39C81.9898 58.9291 64.9016 74.2858 44.2267 74.2858C23.5517 74.2858 6.46349 58.9291 3.74615 39H0C2.74169 60.9866 21.4973 78.0001 44.2267 78.0001C66.956 78.0001 85.7116 60.9866 88.4533 39H84.7072Z" fill="#F5F5F7"/>
<g filter="url(#filter0_d_195_26)">
<path d="M53.1865 44.345C53.1738 46.1057 52.3758 47.3913 50.7925 48.202C49.2092 49.0127 47.1445 49.418 44.5985 49.418C41.7232 49.418 39.5255 48.9303 38.0055 47.955C36.4855 46.967 35.7255 45.485 35.7255 43.509H40.1715C40.1715 44.4843 40.6022 45.2 41.4635 45.656C42.3248 46.0993 43.3698 46.3147 44.5985 46.302C45.6752 46.3273 46.5872 46.1817 47.3345 45.865C48.0945 45.5483 48.4808 45.0417 48.4935 44.345C48.4808 43.9903 48.3858 43.7243 48.2085 43.547C48.0312 43.357 47.7398 43.2303 47.3345 43.167C46.9292 43.091 46.3592 43.053 45.6245 43.053H42.1095V40.317H45.6245C46.6252 40.317 47.3408 40.1903 47.7715 39.937C48.2022 39.6837 48.4175 39.3733 48.4175 39.006C48.4175 38.5373 48.0438 38.1953 47.2965 37.98C46.5618 37.752 45.6625 37.6317 44.5985 37.619C43.3698 37.619 42.3248 37.752 41.4635 38.018C40.6022 38.2713 40.1715 38.6703 40.1715 39.215H35.7255C35.7255 37.391 36.6438 36.156 38.4805 35.51C40.3298 34.8513 42.3692 34.522 44.5985 34.522C45.9538 34.522 47.2142 34.6107 48.3795 34.788C49.5575 34.9527 50.5898 35.3453 51.4765 35.966C52.3632 36.5867 52.8065 37.505 52.8065 38.721C52.8065 39.9623 52.0465 40.811 50.5265 41.267C52.1732 41.761 53.0598 42.7743 53.1865 44.307V44.345Z" fill="white"/>
</g>
<g filter="url(#filter1_d_195_26)">
<path d="M47.6637 23.1824H45.8121C45.2288 23.1818 44.6614 23.377 44.197 23.738C43.7325 24.0991 43.3967 24.606 43.241 25.1811C43.0853 25.7562 43.1184 26.3676 43.3351 26.9217C43.5518 27.4757 43.9401 27.9417 44.4406 28.2482L47.2943 30H52.481L45.8166 25.9088H47.6682C49.0823 25.9088 50.4384 25.3342 51.4383 24.3113C52.4383 23.2884 53 21.901 53 20.4544C53 19.0078 52.4383 17.6205 51.4383 16.5976C50.4384 15.5747 49.0823 15 47.6682 15H40.9993C39.9391 15.0016 38.9228 15.4332 38.1731 16.2001C37.4234 16.967 37.0016 18.0066 37 19.0912V30H39.6667V19.0912C39.6671 18.7298 39.8076 18.3833 40.0574 18.1277C40.3072 17.8721 40.6459 17.7284 40.9993 17.728H47.6637C48.0191 17.7194 48.3726 17.7835 48.7034 17.9167C49.0342 18.0499 49.3356 18.2494 49.59 18.5035C49.8443 18.7576 50.0464 19.0612 50.1844 19.3963C50.3224 19.7315 50.3935 20.0915 50.3935 20.4552C50.3935 20.8188 50.3224 21.1789 50.1844 21.514C50.0464 21.8492 49.8443 22.1527 49.59 22.4068C49.3356 22.6609 49.0342 22.8604 48.7034 22.9936C48.3726 23.1268 48.0191 23.191 47.6637 23.1824Z" fill="#F5F5F7"/>
</g>
<defs>
<filter id="filter0_d_195_26" x="35.7255" y="34.522" width="19.461" height="15.896" filterUnits="userSpaceOnUse" color-interpolation-filters="sRGB">
<feFlood flood-opacity="0" result="BackgroundImageFix"/>
<feColorMatrix in="SourceAlpha" type="matrix" values="0 0 0 0 0 0 0 0 0 0 0 0 0 0 0 0 0 0 127 0" result="hardAlpha"/>
<feOffset dx="2" dy="1"/>
<feComposite in2="hardAlpha" operator="out"/>
<feColorMatrix type="matrix" values="0 0 0 0 0.972549 0 0 0 0 0.513726 0 0 0 0 0.0313726 0 0 0 1 0"/>
<feBlend mode="normal" in2="BackgroundImageFix" result="effect1_dropShadow_195_26"/>
<feBlend mode="normal" in="SourceGraphic" in2="effect1_dropShadow_195_26" result="shape"/>
</filter>
<filter id="filter1_d_195_26" x="37" y="15" width="18" height="16" filterUnits="userSpaceOnUse" color-interpolation-filters="sRGB">
<feFlood flood-opacity="0" result="BackgroundImageFix"/>
<feColorMatrix in="SourceAlpha" type="matrix" values="0 0 0 0 0 0 0 0 0 0 0 0 0 0 0 0 0 0 127 0" result="hardAlpha"/>
<feOffset dx="2" dy="1"/>
<feComposite in2="hardAlpha" operator="out"/>
<feColorMatrix type="matrix" values="0 0 0 0 0.972549 0 0 0 0 0.513726 0 0 0 0 0.0313726 0 0 0 1 0"/>
<feBlend mode="normal" in2="BackgroundImageFix" result="effect1_dropShadow_195_26"/>
<feBlend mode="normal" in="SourceGraphic" in2="effect1_dropShadow_195_26" result="shape"/>
</filter>
</defs>
</svg>
