<svg width="15" height="18" viewBox="0 0 15 18" fill="none" xmlns="http://www.w3.org/2000/svg">
<path d="M0 3.918L2.1798 7.81425V10.1909L0.00255 14.0795L0 3.918Z" fill="#5B57A2"/>
<path d="M8.36955 6.39645L10.4121 5.14455L14.5923 5.14065L8.36955 8.95275V6.39645Z" fill="#D90751"/>
<path d="M8.358 3.89505L8.36955 9.05355L6.18465 7.71105V0L8.358 3.89505Z" fill="#FAB718"/>
<path d="M14.5923 5.14065L10.4121 5.14455L8.358 3.89505L6.18465 0L14.5923 5.14065Z" fill="#ED6F26"/>
<path d="M8.36955 14.1011V11.5983L6.18465 10.2813L6.18585 18L8.36955 14.1011Z" fill="#63B22F"/>
<path d="M10.407 12.8606L2.1798 7.81425L0 3.918L14.5834 12.8555L10.407 12.8606Z" fill="#1487C9"/>
<path d="M6.186 18L8.36955 14.1011L10.407 12.8606L14.5834 12.8555L6.186 18Z" fill="#017F36"/>
<path d="M0.00255 14.0795L6.2025 10.2815L4.1181 9.00255L2.1798 10.1909L0.00255 14.0795Z" fill="#984995"/>
</svg>
