<svg width="42" height="42" viewBox="0 0 42 42" fill="none" xmlns="http://www.w3.org/2000/svg">
<path fill-rule="evenodd" clip-rule="evenodd" d="M29.0769 16.1538C29.0769 20.6146 25.4608 24.2308 21 24.2308C16.5392 24.2308 12.9231 20.6146 12.9231 16.1538C12.9231 11.6931 16.5392 8.07692 21 8.07692C25.4608 8.07692 29.0769 11.6931 29.0769 16.1538ZM25.8462 16.1538C25.8462 18.8303 23.6765 21 21 21C18.3235 21 16.1538 18.8303 16.1538 16.1538C16.1538 13.4774 18.3235 11.3077 21 11.3077C23.6765 11.3077 25.8462 13.4774 25.8462 16.1538Z" fill="#F5F5F7"/>
<path fill-rule="evenodd" clip-rule="evenodd" d="M7.54124 37.1209C6.66994 36.3927 5.85857 35.5952 5.11561 34.7368C1.92831 31.0545 0 26.2524 0 21C0 9.40202 9.40202 0 21 0C32.598 0 42 9.40202 42 21C42 26.2524 40.0717 31.0545 36.8844 34.7368C36.1414 35.5952 35.3301 36.3927 34.4588 37.1209C30.8143 40.1668 26.1212 42 21 42C15.8788 42 11.1857 40.1668 7.54124 37.1209ZM38.7692 21C38.7692 25.1518 37.3453 28.971 34.9592 31.996C31.6775 28.2261 26.5959 25.8462 21 25.8462C15.4041 25.8462 10.3225 28.2261 7.04077 31.996C4.65467 28.971 3.23077 25.1518 3.23077 21C3.23077 11.1863 11.1863 3.23077 21 3.23077C30.8137 3.23077 38.7692 11.1863 38.7692 21ZM21 38.7692C16.5106 38.7692 12.4101 37.1044 9.28214 34.3583C11.901 31.182 16.123 29.0769 21 29.0769C25.877 29.0769 30.099 31.182 32.7179 34.3583C29.5899 37.1044 25.4894 38.7692 21 38.7692Z" fill="#F5F5F7"/>
</svg>
